<svg width="31" height="17" viewBox="0 0 31 17" fill="none" xmlns="http://www.w3.org/2000/svg">
<path d="M15.5 16.8709C12.014 16.8709 8.26223 15.5076 4.65028 12.9282C1.95016 11.0001 0.283603 9.08982 0.213965 9.00931C-0.0713216 8.67992 -0.0713216 8.19097 0.213965 7.86151C0.283603 7.78114 1.95009 5.87074 4.65028 3.9426C8.2623 1.36346 12.0141 0 15.5 0C18.986 0 22.7378 1.36339 26.3497 3.9426C29.0498 5.87074 30.7164 7.78107 30.786 7.86151C31.0713 8.1909 31.0713 8.67985 30.786 9.00931C30.7164 9.08968 29.0499 11.0001 26.3497 12.9282C22.7378 15.5075 18.9861 16.8709 15.5 16.8709ZM2.0785 8.43551C2.75244 9.12271 4.02438 10.3311 5.70376 11.5262C8.00611 13.1645 11.5746 15.1177 15.5 15.1177C19.4254 15.1177 22.994 13.1645 25.2962 11.5262C26.9754 10.3313 28.2474 9.12278 28.9215 8.43551C28.2476 7.74832 26.9756 6.53992 25.2962 5.34484C22.994 3.70648 19.4254 1.75338 15.5 1.75338C11.5746 1.75338 8.00611 3.70648 5.70376 5.34484C4.02459 6.53971 2.75258 7.74811 2.0785 8.43551Z" fill="black"/>
<path d="M15.5001 13.8705C12.5032 13.8705 10.0651 11.4324 10.0651 8.43552C10.0651 5.43868 12.5032 3.00049 15.5001 3.00049C16.8181 3.00049 18.0895 3.47835 19.0801 4.34613C19.4442 4.66515 19.4808 5.21896 19.1618 5.58314C18.8428 5.94733 18.2889 5.98386 17.9248 5.66492C17.2541 5.0773 16.3929 4.75372 15.5 4.75372C13.4698 4.75372 11.8182 6.40541 11.8182 8.43552C11.8182 10.4656 13.4698 12.1173 15.5 12.1173C17.5303 12.1173 19.1818 10.4656 19.1818 8.43552C19.1818 7.95141 19.5743 7.5589 20.0584 7.5589C20.5425 7.5589 20.9351 7.95141 20.9351 8.43552C20.9352 11.4324 18.497 13.8705 15.5001 13.8705Z" fill="black"/>
<path d="M15.4999 10.1887C14.5332 10.1887 13.7467 9.40222 13.7467 8.43549C13.7467 7.46875 14.5332 6.68225 15.4999 6.68225C16.4667 6.68225 17.2532 7.46875 17.2532 8.43549C17.2532 9.40222 16.4667 10.1887 15.4999 10.1887Z" fill="black"/>
</svg>
