<svg width="260" height="88" viewBox="0 0 260 88" fill="none" xmlns="http://www.w3.org/2000/svg">
<path d="M52.9729 40.5783L34.448 0.105347L16.0271 40.4726L11.8643 49.7719L0 75.6619L0.104072 75.7676C2.80995 79.1491 6.0362 82.108 9.67873 84.4328L13.4253 75.7676L21.4389 57.3804C25.4977 59.3882 29.9728 60.4449 34.448 60.4449C38.9231 60.4449 43.3982 59.3882 47.457 57.4861L55.5747 75.8733L59.3213 84.5385C62.9638 82.2137 66.19 79.2548 68.8959 75.8733H69L57.2398 49.7719L52.9729 40.5783ZM34.448 49.1379C31.1176 49.1379 27.8914 48.5038 24.8733 47.1301L34.448 24.4103L44.0226 47.1301C41.1086 48.5038 37.7783 49.1379 34.448 49.1379Z" fill="#0540F2"/>
<path d="M92 12L92 80" stroke="#0540F2" stroke-width="1.5" stroke-linecap="round"/>
<path d="M108.089 18.5937V17.2257H112.859V18.5937H108.089ZM111.896 14.9307H113.417V21.2307H111.896V14.9307ZM107.666 14.9307H109.187V21.2307H107.666V14.9307ZM115.659 19.9977C115.659 20.0937 115.686 20.1747 115.74 20.2407C115.794 20.3007 115.866 20.3487 115.956 20.3847C116.052 20.4147 116.151 20.4297 116.253 20.4297C116.421 20.4297 116.574 20.4027 116.712 20.3487C116.856 20.2947 116.97 20.2047 117.054 20.0787C117.138 19.9527 117.18 19.7787 117.18 19.5567L117.324 20.0607C117.324 20.3247 117.255 20.5527 117.117 20.7447C116.985 20.9307 116.802 21.0747 116.568 21.1767C116.34 21.2727 116.082 21.3207 115.794 21.3207C115.506 21.3207 115.248 21.2727 115.02 21.1767C114.792 21.0747 114.612 20.9307 114.48 20.7447C114.354 20.5527 114.291 20.3217 114.291 20.0517C114.291 19.7757 114.363 19.5387 114.507 19.3407C114.657 19.1427 114.867 18.9897 115.137 18.8817C115.407 18.7737 115.722 18.7197 116.082 18.7197C116.292 18.7197 116.49 18.7437 116.676 18.7917C116.868 18.8337 117.033 18.8907 117.171 18.9627C117.315 19.0287 117.417 19.0947 117.477 19.1607V19.7997C117.321 19.6857 117.159 19.6017 116.991 19.5477C116.829 19.4877 116.631 19.4577 116.397 19.4577C116.241 19.4577 116.106 19.4817 115.992 19.5297C115.884 19.5717 115.8 19.6317 115.74 19.7097C115.686 19.7877 115.659 19.8837 115.659 19.9977ZM115.128 18.3687L114.669 17.4507C114.903 17.3367 115.182 17.2287 115.506 17.1267C115.836 17.0247 116.187 16.9737 116.559 16.9737C116.931 16.9737 117.261 17.0277 117.549 17.1357C117.843 17.2377 118.071 17.3877 118.233 17.5857C118.401 17.7837 118.485 18.0267 118.485 18.3147V21.2307H117.18V18.5847C117.18 18.4107 117.114 18.2727 116.982 18.1707C116.856 18.0627 116.679 18.0087 116.451 18.0087C116.253 18.0087 116.064 18.0297 115.884 18.0717C115.71 18.1137 115.557 18.1647 115.425 18.2247C115.293 18.2787 115.194 18.3267 115.128 18.3687ZM123.66 20.1057H124.38V22.1487H123.111V21.2307H119.502V17.0907H120.87V20.1057H122.301V17.0907H123.66V20.1057ZM129.286 18.2607L125.11 21.5457L125.155 20.0607L129.331 16.7757L129.286 18.2607ZM126.424 17.0907V20.2767L125.11 21.5457V17.0907H126.424ZM129.331 16.7757V21.2307H128.026V18.0447L129.331 16.7757ZM130.175 19.1607C130.175 18.7227 130.277 18.3417 130.481 18.0177C130.685 17.6937 130.967 17.4417 131.327 17.2617C131.687 17.0817 132.092 16.9917 132.542 16.9917C132.992 16.9917 133.394 17.0817 133.748 17.2617C134.108 17.4417 134.39 17.6937 134.594 18.0177C134.804 18.3417 134.909 18.7227 134.909 19.1607C134.909 19.5927 134.804 19.9707 134.594 20.2947C134.39 20.6187 134.108 20.8707 133.748 21.0507C133.394 21.2307 132.992 21.3207 132.542 21.3207C132.092 21.3207 131.687 21.2307 131.327 21.0507C130.967 20.8707 130.685 20.6187 130.481 20.2947C130.277 19.9707 130.175 19.5927 130.175 19.1607ZM131.57 19.1607C131.57 19.3767 131.615 19.5627 131.705 19.7187C131.795 19.8687 131.912 19.9857 132.056 20.0697C132.2 20.1537 132.362 20.1957 132.542 20.1957C132.716 20.1957 132.875 20.1537 133.019 20.0697C133.169 19.9857 133.286 19.8687 133.37 19.7187C133.46 19.5627 133.505 19.3767 133.505 19.1607C133.505 18.9447 133.46 18.7587 133.37 18.6027C133.286 18.4467 133.169 18.3267 133.019 18.2427C132.875 18.1587 132.716 18.1167 132.542 18.1167C132.362 18.1167 132.2 18.1587 132.056 18.2427C131.912 18.3267 131.795 18.4467 131.705 18.6027C131.615 18.7587 131.57 18.9447 131.57 19.1607ZM136.149 19.5567V18.5397H139.497V19.5567H136.149ZM138.885 17.0907H140.19V21.2307H138.885V17.0907ZM135.726 17.0907H137.04V21.2307H135.726V17.0907ZM142.316 19.9977C142.316 20.0937 142.343 20.1747 142.397 20.2407C142.451 20.3007 142.523 20.3487 142.613 20.3847C142.709 20.4147 142.808 20.4297 142.91 20.4297C143.078 20.4297 143.231 20.4027 143.369 20.3487C143.513 20.2947 143.627 20.2047 143.711 20.0787C143.795 19.9527 143.837 19.7787 143.837 19.5567L143.981 20.0607C143.981 20.3247 143.912 20.5527 143.774 20.7447C143.642 20.9307 143.459 21.0747 143.225 21.1767C142.997 21.2727 142.739 21.3207 142.451 21.3207C142.163 21.3207 141.905 21.2727 141.677 21.1767C141.449 21.0747 141.269 20.9307 141.137 20.7447C141.011 20.5527 140.948 20.3217 140.948 20.0517C140.948 19.7757 141.02 19.5387 141.164 19.3407C141.314 19.1427 141.524 18.9897 141.794 18.8817C142.064 18.7737 142.379 18.7197 142.739 18.7197C142.949 18.7197 143.147 18.7437 143.333 18.7917C143.525 18.8337 143.69 18.8907 143.828 18.9627C143.972 19.0287 144.074 19.0947 144.134 19.1607V19.7997C143.978 19.6857 143.816 19.6017 143.648 19.5477C143.486 19.4877 143.288 19.4577 143.054 19.4577C142.898 19.4577 142.763 19.4817 142.649 19.5297C142.541 19.5717 142.457 19.6317 142.397 19.7097C142.343 19.7877 142.316 19.8837 142.316 19.9977ZM141.785 18.3687L141.326 17.4507C141.56 17.3367 141.839 17.2287 142.163 17.1267C142.493 17.0247 142.844 16.9737 143.216 16.9737C143.588 16.9737 143.918 17.0277 144.206 17.1357C144.5 17.2377 144.728 17.3877 144.89 17.5857C145.058 17.7837 145.142 18.0267 145.142 18.3147V21.2307H143.837V18.5847C143.837 18.4107 143.771 18.2727 143.639 18.1707C143.513 18.0627 143.336 18.0087 143.108 18.0087C142.91 18.0087 142.721 18.0297 142.541 18.0717C142.367 18.1137 142.214 18.1647 142.082 18.2247C141.95 18.2787 141.851 18.3267 141.785 18.3687ZM150.515 17.0907V21.2307H149.21V18.3237H147.68V19.7907C147.68 20.1147 147.62 20.3847 147.5 20.6007C147.38 20.8107 147.176 20.9697 146.888 21.0777C146.606 21.1797 146.216 21.2307 145.718 21.2307V20.0157C145.898 20.0157 146.051 19.9827 146.177 19.9167C146.309 19.8447 146.375 19.6917 146.375 19.4577V17.0907H150.515ZM151.829 17.0907H153.188V21.2307H151.829V17.0907ZM152.891 19.3677V18.4857H154.178C154.604 18.4857 154.961 18.5907 155.249 18.8007C155.543 19.0047 155.69 19.3287 155.69 19.7727C155.69 20.0667 155.624 20.3247 155.492 20.5467C155.36 20.7687 155.18 20.9397 154.952 21.0597C154.724 21.1737 154.466 21.2307 154.178 21.2307H152.891V20.1777H153.935C154.037 20.1777 154.121 20.1627 154.187 20.1327C154.259 20.1027 154.313 20.0577 154.349 19.9977C154.391 19.9317 154.412 19.8567 154.412 19.7727C154.412 19.6527 154.37 19.5567 154.286 19.4847C154.208 19.4067 154.091 19.3677 153.935 19.3677H152.891ZM157.094 19.5567V18.5397H160.442V19.5567H157.094ZM159.83 17.0907H161.135V21.2307H159.83V17.0907ZM156.671 17.0907H157.985V21.2307H156.671V17.0907ZM166.645 17.0907H168.013V21.2307H166.645V17.0907ZM162.208 17.0907H163.576V21.2307H162.208V17.0907ZM163.279 19.3677V18.4857H164.566C164.992 18.4857 165.349 18.5907 165.637 18.8007C165.931 19.0047 166.078 19.3287 166.078 19.7727C166.078 20.0667 166.012 20.3247 165.88 20.5467C165.748 20.7687 165.568 20.9397 165.34 21.0597C165.112 21.1737 164.854 21.2307 164.566 21.2307H163.279V20.1777H164.323C164.425 20.1777 164.509 20.1627 164.575 20.1327C164.647 20.1027 164.701 20.0577 164.737 19.9977C164.779 19.9317 164.8 19.8567 164.8 19.7727C164.8 19.6527 164.758 19.5567 164.674 19.4847C164.596 19.4067 164.479 19.3677 164.323 19.3677H163.279ZM173.266 18.2607L169.09 21.5457L169.135 20.0607L173.311 16.7757L173.266 18.2607ZM170.404 17.0907V20.2767L169.09 21.5457V17.0907H170.404ZM173.311 16.7757V21.2307H172.006V18.0447L173.311 16.7757ZM169.792 14.9757H170.683C170.683 15.0777 170.707 15.1707 170.755 15.2547C170.803 15.3327 170.872 15.3957 170.962 15.4437C171.052 15.4857 171.154 15.5067 171.268 15.5067C171.382 15.5067 171.484 15.4857 171.574 15.4437C171.664 15.3957 171.733 15.3327 171.781 15.2547C171.829 15.1707 171.853 15.0777 171.853 14.9757H172.744C172.744 15.2157 172.687 15.4377 172.573 15.6417C172.459 15.8397 172.291 15.9987 172.069 16.1187C171.853 16.2327 171.586 16.2897 171.268 16.2897C170.956 16.2897 170.689 16.2327 170.467 16.1187C170.245 15.9987 170.077 15.8397 169.963 15.6417C169.849 15.4377 169.792 15.2157 169.792 14.9757ZM178.635 20.1957L179.031 19.0707H180.048V20.1957H178.635ZM179.535 17.0907H180.894V21.2307H179.535V17.0907ZM178.374 17.0907V18.3867C178.374 18.5547 178.395 18.6897 178.437 18.7917C178.485 18.8877 178.557 18.9597 178.653 19.0077C178.749 19.0497 178.875 19.0707 179.031 19.0707L178.635 20.1957C178.221 20.1957 177.894 20.1207 177.654 19.9707C177.42 19.8147 177.255 19.5957 177.159 19.3137C177.063 19.0257 177.015 18.6807 177.015 18.2787V17.0907H178.374ZM182.54 19.4487V18.6927H184.88C184.856 18.5247 184.811 18.3837 184.745 18.2697C184.685 18.1557 184.598 18.0687 184.484 18.0087C184.376 17.9427 184.241 17.9097 184.079 17.9097C183.893 17.9097 183.731 17.9517 183.593 18.0357C183.461 18.1137 183.356 18.2307 183.278 18.3867C183.2 18.5367 183.161 18.7227 183.161 18.9447L183.143 19.1607C183.143 19.4427 183.185 19.6707 183.269 19.8447C183.359 20.0187 183.476 20.1447 183.62 20.2227C183.77 20.3007 183.932 20.3397 184.106 20.3397C184.274 20.3397 184.421 20.3187 184.547 20.2767C184.679 20.2347 184.793 20.1747 184.889 20.0967C184.985 20.0127 185.066 19.9137 185.132 19.7997L186.347 20.0967C186.209 20.3487 186.044 20.5677 185.852 20.7537C185.66 20.9337 185.423 21.0747 185.141 21.1767C184.865 21.2727 184.526 21.3207 184.124 21.3207C183.626 21.3207 183.2 21.2277 182.846 21.0417C182.498 20.8557 182.231 20.6007 182.045 20.2767C181.865 19.9467 181.775 19.5747 181.775 19.1607C181.775 19.0827 181.778 19.0077 181.784 18.9357C181.79 18.8637 181.799 18.7917 181.811 18.7197C181.871 18.3777 181.994 18.0777 182.18 17.8197C182.372 17.5617 182.627 17.3607 182.945 17.2167C183.269 17.0727 183.656 17.0007 184.106 17.0007C184.592 17.0007 185 17.0847 185.33 17.2527C185.66 17.4207 185.909 17.6607 186.077 17.9727C186.251 18.2847 186.338 18.6597 186.338 19.0977C186.338 19.1337 186.338 19.1847 186.338 19.2507C186.338 19.3107 186.332 19.3767 186.32 19.4487H182.54ZM191.164 21.2307L190.597 18.3957L191.281 16.7757L192.532 21.2307H191.164ZM189.337 20.0517L191.281 16.7757L191.371 18.6117L189.607 21.5097L189.337 20.0517ZM189.607 21.5097L187.87 18.6117L187.96 16.7757L189.877 20.0517L189.607 21.5097ZM186.709 21.2307L187.96 16.7757L188.644 18.3957L188.077 21.2307H186.709ZM197.214 17.0907V21.2307H195.909V18.2697H194.424V21.2307H193.11V17.0907H197.214ZM202.481 18.2607L198.305 21.5457L198.35 20.0607L202.526 16.7757L202.481 18.2607ZM199.619 17.0907V20.2767L198.305 21.5457V17.0907H199.619ZM202.526 16.7757V21.2307H201.221V18.0447L202.526 16.7757ZM203.37 19.1607C203.37 18.7227 203.472 18.3417 203.676 18.0177C203.88 17.6937 204.162 17.4417 204.522 17.2617C204.882 17.0817 205.287 16.9917 205.737 16.9917C206.187 16.9917 206.589 17.0817 206.943 17.2617C207.303 17.4417 207.585 17.6937 207.789 18.0177C207.999 18.3417 208.104 18.7227 208.104 19.1607C208.104 19.5927 207.999 19.9707 207.789 20.2947C207.585 20.6187 207.303 20.8707 206.943 21.0507C206.589 21.2307 206.187 21.3207 205.737 21.3207C205.287 21.3207 204.882 21.2307 204.522 21.0507C204.162 20.8707 203.88 20.6187 203.676 20.2947C203.472 19.9707 203.37 19.5927 203.37 19.1607ZM204.765 19.1607C204.765 19.3767 204.81 19.5627 204.9 19.7187C204.99 19.8687 205.107 19.9857 205.251 20.0697C205.395 20.1537 205.557 20.1957 205.737 20.1957C205.911 20.1957 206.07 20.1537 206.214 20.0697C206.364 19.9857 206.481 19.8687 206.565 19.7187C206.655 19.5627 206.7 19.3767 206.7 19.1607C206.7 18.9447 206.655 18.7587 206.565 18.6027C206.481 18.4467 206.364 18.3267 206.214 18.2427C206.07 18.1587 205.911 18.1167 205.737 18.1167C205.557 18.1167 205.395 18.1587 205.251 18.2427C205.107 18.3267 204.99 18.4467 204.9 18.6027C204.81 18.7587 204.765 18.9447 204.765 19.1607ZM209.345 19.5567V18.5397H212.693V19.5567H209.345ZM212.081 17.0907H213.386V21.2307H212.081V17.0907ZM208.922 17.0907H210.236V21.2307H208.922V17.0907ZM215.512 19.9977C215.512 20.0937 215.539 20.1747 215.593 20.2407C215.647 20.3007 215.719 20.3487 215.809 20.3847C215.905 20.4147 216.004 20.4297 216.106 20.4297C216.274 20.4297 216.427 20.4027 216.565 20.3487C216.709 20.2947 216.823 20.2047 216.907 20.0787C216.991 19.9527 217.033 19.7787 217.033 19.5567L217.177 20.0607C217.177 20.3247 217.108 20.5527 216.97 20.7447C216.838 20.9307 216.655 21.0747 216.421 21.1767C216.193 21.2727 215.935 21.3207 215.647 21.3207C215.359 21.3207 215.101 21.2727 214.873 21.1767C214.645 21.0747 214.465 20.9307 214.333 20.7447C214.207 20.5527 214.144 20.3217 214.144 20.0517C214.144 19.7757 214.216 19.5387 214.36 19.3407C214.51 19.1427 214.72 18.9897 214.99 18.8817C215.26 18.7737 215.575 18.7197 215.935 18.7197C216.145 18.7197 216.343 18.7437 216.529 18.7917C216.721 18.8337 216.886 18.8907 217.024 18.9627C217.168 19.0287 217.27 19.0947 217.33 19.1607V19.7997C217.174 19.6857 217.012 19.6017 216.844 19.5477C216.682 19.4877 216.484 19.4577 216.25 19.4577C216.094 19.4577 215.959 19.4817 215.845 19.5297C215.737 19.5717 215.653 19.6317 215.593 19.7097C215.539 19.7877 215.512 19.8837 215.512 19.9977ZM214.981 18.3687L214.522 17.4507C214.756 17.3367 215.035 17.2287 215.359 17.1267C215.689 17.0247 216.04 16.9737 216.412 16.9737C216.784 16.9737 217.114 17.0277 217.402 17.1357C217.696 17.2377 217.924 17.3877 218.086 17.5857C218.254 17.7837 218.338 18.0267 218.338 18.3147V21.2307H217.033V18.5847C217.033 18.4107 216.967 18.2727 216.835 18.1707C216.709 18.0627 216.532 18.0087 216.304 18.0087C216.106 18.0087 215.917 18.0297 215.737 18.0717C215.563 18.1137 215.41 18.1647 215.278 18.2247C215.146 18.2787 215.047 18.3267 214.981 18.3687ZM218.868 17.0907H221.775V18.2157H218.868V17.0907ZM219.669 17.2707H220.974V21.2307H219.669V17.2707ZM111.635 28.0907V32.2307H110.33V29.2697H108.845V32.2307H107.531V28.0907H111.635ZM112.465 30.1607C112.465 29.7227 112.567 29.3417 112.771 29.0177C112.975 28.6937 113.257 28.4417 113.617 28.2617C113.977 28.0817 114.382 27.9917 114.832 27.9917C115.282 27.9917 115.684 28.0817 116.038 28.2617C116.398 28.4417 116.68 28.6937 116.884 29.0177C117.094 29.3417 117.199 29.7227 117.199 30.1607C117.199 30.5927 117.094 30.9707 116.884 31.2947C116.68 31.6187 116.398 31.8707 116.038 32.0507C115.684 32.2307 115.282 32.3207 114.832 32.3207C114.382 32.3207 113.977 32.2307 113.617 32.0507C113.257 31.8707 112.975 31.6187 112.771 31.2947C112.567 30.9707 112.465 30.5927 112.465 30.1607ZM113.86 30.1607C113.86 30.3767 113.905 30.5627 113.995 30.7187C114.085 30.8687 114.202 30.9857 114.346 31.0697C114.49 31.1537 114.652 31.1957 114.832 31.1957C115.006 31.1957 115.165 31.1537 115.309 31.0697C115.459 30.9857 115.576 30.8687 115.66 30.7187C115.75 30.5627 115.795 30.3767 115.795 30.1607C115.795 29.9447 115.75 29.7587 115.66 29.6027C115.576 29.4467 115.459 29.3267 115.309 29.2427C115.165 29.1587 115.006 29.1167 114.832 29.1167C114.652 29.1167 114.49 29.1587 114.346 29.2427C114.202 29.3267 114.085 29.4467 113.995 29.6027C113.905 29.7587 113.86 29.9447 113.86 30.1607ZM124.819 28.0907V32.2307H123.514V29.2697H122.029V32.2307H120.715V28.0907H124.819ZM127.241 34.2107H125.882V28.0907H127.241V34.2107ZM130.625 30.1607C130.625 30.6407 130.529 31.0457 130.337 31.3757C130.151 31.7057 129.908 31.9547 129.608 32.1227C129.314 32.2907 128.996 32.3747 128.654 32.3747C128.294 32.3747 127.982 32.2847 127.718 32.1047C127.46 31.9187 127.262 31.6607 127.124 31.3307C126.986 30.9947 126.917 30.6047 126.917 30.1607C126.917 29.7107 126.986 29.3207 127.124 28.9907C127.262 28.6607 127.46 28.4057 127.718 28.2257C127.982 28.0397 128.294 27.9467 128.654 27.9467C128.996 27.9467 129.314 28.0307 129.608 28.1987C129.908 28.3667 130.151 28.6157 130.337 28.9457C130.529 29.2697 130.625 29.6747 130.625 30.1607ZM129.194 30.1607C129.194 29.9447 129.149 29.7617 129.059 29.6117C128.969 29.4617 128.849 29.3477 128.699 29.2697C128.549 29.1917 128.384 29.1527 128.204 29.1527C128.048 29.1527 127.895 29.1917 127.745 29.2697C127.601 29.3417 127.481 29.4527 127.385 29.6027C127.289 29.7527 127.241 29.9387 127.241 30.1607C127.241 30.3827 127.289 30.5687 127.385 30.7187C127.481 30.8687 127.601 30.9827 127.745 31.0607C127.895 31.1327 128.048 31.1687 128.204 31.1687C128.384 31.1687 128.549 31.1297 128.699 31.0517C128.849 30.9737 128.969 30.8597 129.059 30.7097C129.149 30.5597 129.194 30.3767 129.194 30.1607ZM131.203 30.1607C131.203 29.7227 131.305 29.3417 131.509 29.0177C131.713 28.6937 131.995 28.4417 132.355 28.2617C132.715 28.0817 133.12 27.9917 133.57 27.9917C134.02 27.9917 134.422 28.0817 134.776 28.2617C135.136 28.4417 135.418 28.6937 135.622 29.0177C135.832 29.3417 135.937 29.7227 135.937 30.1607C135.937 30.5927 135.832 30.9707 135.622 31.2947C135.418 31.6187 135.136 31.8707 134.776 32.0507C134.422 32.2307 134.02 32.3207 133.57 32.3207C133.12 32.3207 132.715 32.2307 132.355 32.0507C131.995 31.8707 131.713 31.6187 131.509 31.2947C131.305 30.9707 131.203 30.5927 131.203 30.1607ZM132.598 30.1607C132.598 30.3767 132.643 30.5627 132.733 30.7187C132.823 30.8687 132.94 30.9857 133.084 31.0697C133.228 31.1537 133.39 31.1957 133.57 31.1957C133.744 31.1957 133.903 31.1537 134.047 31.0697C134.197 30.9857 134.314 30.8687 134.398 30.7187C134.488 30.5627 134.533 30.3767 134.533 30.1607C134.533 29.9447 134.488 29.7587 134.398 29.6027C134.314 29.4467 134.197 29.3267 134.047 29.2427C133.903 29.1587 133.744 29.1167 133.57 29.1167C133.39 29.1167 133.228 29.1587 133.084 29.2427C132.94 29.3267 132.823 29.4467 132.733 29.6027C132.643 29.7587 132.598 29.9447 132.598 30.1607ZM138.582 27.1907H139.86V33.1307H138.582V27.1907ZM136.512 30.1607C136.512 29.7227 136.62 29.3417 136.836 29.0177C137.052 28.6937 137.361 28.4417 137.763 28.2617C138.171 28.0817 138.657 27.9917 139.221 27.9917C139.791 27.9917 140.277 28.0817 140.679 28.2617C141.087 28.4417 141.399 28.6937 141.615 29.0177C141.831 29.3417 141.939 29.7227 141.939 30.1607C141.939 30.5927 141.831 30.9707 141.615 31.2947C141.399 31.6187 141.087 31.8707 140.679 32.0507C140.277 32.2307 139.791 32.3207 139.221 32.3207C138.657 32.3207 138.171 32.2307 137.763 32.0507C137.361 31.8707 137.052 31.6187 136.836 31.2947C136.62 30.9707 136.512 30.5927 136.512 30.1607ZM137.745 30.1607C137.745 30.3767 137.796 30.5627 137.898 30.7187C138 30.8687 138.159 30.9857 138.375 31.0697C138.591 31.1537 138.873 31.1957 139.221 31.1957C139.575 31.1957 139.86 31.1537 140.076 31.0697C140.292 30.9857 140.451 30.8687 140.553 30.7187C140.655 30.5627 140.706 30.3767 140.706 30.1607C140.706 29.9447 140.655 29.7587 140.553 29.6027C140.451 29.4467 140.292 29.3267 140.076 29.2427C139.86 29.1587 139.575 29.1167 139.221 29.1167C138.873 29.1167 138.591 29.1587 138.375 29.2427C138.159 29.3267 138 29.4467 137.898 29.6027C137.796 29.7587 137.745 29.9447 137.745 30.1607ZM143.28 30.4487V29.6927H145.62C145.596 29.5247 145.551 29.3837 145.485 29.2697C145.425 29.1557 145.338 29.0687 145.224 29.0087C145.116 28.9427 144.981 28.9097 144.819 28.9097C144.633 28.9097 144.471 28.9517 144.333 29.0357C144.201 29.1137 144.096 29.2307 144.018 29.3867C143.94 29.5367 143.901 29.7227 143.901 29.9447L143.883 30.1607C143.883 30.4427 143.925 30.6707 144.009 30.8447C144.099 31.0187 144.216 31.1447 144.36 31.2227C144.51 31.3007 144.672 31.3397 144.846 31.3397C145.014 31.3397 145.161 31.3187 145.287 31.2767C145.419 31.2347 145.533 31.1747 145.629 31.0967C145.725 31.0127 145.806 30.9137 145.872 30.7997L147.087 31.0967C146.949 31.3487 146.784 31.5677 146.592 31.7537C146.4 31.9337 146.163 32.0747 145.881 32.1767C145.605 32.2727 145.266 32.3207 144.864 32.3207C144.366 32.3207 143.94 32.2277 143.586 32.0417C143.238 31.8557 142.971 31.6007 142.785 31.2767C142.605 30.9467 142.515 30.5747 142.515 30.1607C142.515 30.0827 142.518 30.0077 142.524 29.9357C142.53 29.8637 142.539 29.7917 142.551 29.7197C142.611 29.3777 142.734 29.0777 142.92 28.8197C143.112 28.5617 143.367 28.3607 143.685 28.2167C144.009 28.0727 144.396 28.0007 144.846 28.0007C145.332 28.0007 145.74 28.0847 146.07 28.2527C146.4 28.4207 146.649 28.6607 146.817 28.9727C146.991 29.2847 147.078 29.6597 147.078 30.0977C147.078 30.1337 147.078 30.1847 147.078 30.2507C147.078 30.3107 147.072 30.3767 147.06 30.4487H143.28ZM149.077 30.1607C149.077 30.3827 149.125 30.5747 149.221 30.7367C149.317 30.8927 149.449 31.0157 149.617 31.1057C149.791 31.1957 149.977 31.2407 150.175 31.2407C150.343 31.2407 150.502 31.2167 150.652 31.1687C150.808 31.1147 150.949 31.0427 151.075 30.9527C151.207 30.8627 151.315 30.7517 151.399 30.6197V31.9427C151.255 32.0567 151.075 32.1497 150.859 32.2217C150.643 32.2877 150.379 32.3207 150.067 32.3207C149.611 32.3207 149.2 32.2307 148.834 32.0507C148.474 31.8707 148.189 31.6187 147.979 31.2947C147.775 30.9707 147.673 30.5927 147.673 30.1607C147.673 29.7227 147.775 29.3447 147.979 29.0267C148.189 28.7027 148.474 28.4507 148.834 28.2707C149.2 28.0907 149.611 28.0007 150.067 28.0007C150.379 28.0007 150.643 28.0367 150.859 28.1087C151.075 28.1747 151.255 28.2587 151.399 28.3607V29.6927C151.315 29.5607 151.204 29.4497 151.066 29.3597C150.934 29.2697 150.79 29.2007 150.634 29.1527C150.478 29.1047 150.325 29.0807 150.175 29.0807C149.977 29.0807 149.791 29.1287 149.617 29.2247C149.449 29.3207 149.317 29.4497 149.221 29.6117C149.125 29.7737 149.077 29.9567 149.077 30.1607ZM153.525 30.1607C153.525 30.3827 153.573 30.5747 153.669 30.7367C153.765 30.8927 153.897 31.0157 154.065 31.1057C154.239 31.1957 154.425 31.2407 154.623 31.2407C154.791 31.2407 154.95 31.2167 155.1 31.1687C155.256 31.1147 155.397 31.0427 155.523 30.9527C155.655 30.8627 155.763 30.7517 155.847 30.6197V31.9427C155.703 32.0567 155.523 32.1497 155.307 32.2217C155.091 32.2877 154.827 32.3207 154.515 32.3207C154.059 32.3207 153.648 32.2307 153.282 32.0507C152.922 31.8707 152.637 31.6187 152.427 31.2947C152.223 30.9707 152.121 30.5927 152.121 30.1607C152.121 29.7227 152.223 29.3447 152.427 29.0267C152.637 28.7027 152.922 28.4507 153.282 28.2707C153.648 28.0907 154.059 28.0007 154.515 28.0007C154.827 28.0007 155.091 28.0367 155.307 28.1087C155.523 28.1747 155.703 28.2587 155.847 28.3607V29.6927C155.763 29.5607 155.652 29.4497 155.514 29.3597C155.382 29.2697 155.238 29.2007 155.082 29.1527C154.926 29.1047 154.773 29.0807 154.623 29.0807C154.425 29.0807 154.239 29.1287 154.065 29.2247C153.897 29.3207 153.765 29.4497 153.669 29.6117C153.573 29.7737 153.525 29.9567 153.525 30.1607ZM161.023 29.2607L156.847 32.5457L156.892 31.0607L161.068 27.7757L161.023 29.2607ZM158.161 28.0907V31.2767L156.847 32.5457V28.0907H158.161ZM161.068 27.7757V32.2307H159.763V29.0447L161.068 27.7757ZM161.912 30.1607C161.912 29.7227 162.014 29.3417 162.218 29.0177C162.422 28.6937 162.704 28.4417 163.064 28.2617C163.424 28.0817 163.829 27.9917 164.279 27.9917C164.729 27.9917 165.131 28.0817 165.485 28.2617C165.845 28.4417 166.127 28.6937 166.331 29.0177C166.541 29.3417 166.646 29.7227 166.646 30.1607C166.646 30.5927 166.541 30.9707 166.331 31.2947C166.127 31.6187 165.845 31.8707 165.485 32.0507C165.131 32.2307 164.729 32.3207 164.279 32.3207C163.829 32.3207 163.424 32.2307 163.064 32.0507C162.704 31.8707 162.422 31.6187 162.218 31.2947C162.014 30.9707 161.912 30.5927 161.912 30.1607ZM163.307 30.1607C163.307 30.3767 163.352 30.5627 163.442 30.7187C163.532 30.8687 163.649 30.9857 163.793 31.0697C163.937 31.1537 164.099 31.1957 164.279 31.1957C164.453 31.1957 164.612 31.1537 164.756 31.0697C164.906 30.9857 165.023 30.8687 165.107 30.7187C165.197 30.5627 165.242 30.3767 165.242 30.1607C165.242 29.9447 165.197 29.7587 165.107 29.6027C165.023 29.4467 164.906 29.3267 164.756 29.2427C164.612 29.1587 164.453 29.1167 164.279 29.1167C164.099 29.1167 163.937 29.1587 163.793 29.2427C163.649 29.3267 163.532 29.4467 163.442 29.6027C163.352 29.7587 163.307 29.9447 163.307 30.1607ZM167.887 30.5567V29.5397H171.235V30.5567H167.887ZM170.623 28.0907H171.928V32.2307H170.623V28.0907ZM167.464 28.0907H168.778V32.2307H167.464V28.0907ZM174.054 30.9977C174.054 31.0937 174.081 31.1747 174.135 31.2407C174.189 31.3007 174.261 31.3487 174.351 31.3847C174.447 31.4147 174.546 31.4297 174.648 31.4297C174.816 31.4297 174.969 31.4027 175.107 31.3487C175.251 31.2947 175.365 31.2047 175.449 31.0787C175.533 30.9527 175.575 30.7787 175.575 30.5567L175.719 31.0607C175.719 31.3247 175.65 31.5527 175.512 31.7447C175.38 31.9307 175.197 32.0747 174.963 32.1767C174.735 32.2727 174.477 32.3207 174.189 32.3207C173.901 32.3207 173.643 32.2727 173.415 32.1767C173.187 32.0747 173.007 31.9307 172.875 31.7447C172.749 31.5527 172.686 31.3217 172.686 31.0517C172.686 30.7757 172.758 30.5387 172.902 30.3407C173.052 30.1427 173.262 29.9897 173.532 29.8817C173.802 29.7737 174.117 29.7197 174.477 29.7197C174.687 29.7197 174.885 29.7437 175.071 29.7917C175.263 29.8337 175.428 29.8907 175.566 29.9627C175.71 30.0287 175.812 30.0947 175.872 30.1607V30.7997C175.716 30.6857 175.554 30.6017 175.386 30.5477C175.224 30.4877 175.026 30.4577 174.792 30.4577C174.636 30.4577 174.501 30.4817 174.387 30.5297C174.279 30.5717 174.195 30.6317 174.135 30.7097C174.081 30.7877 174.054 30.8837 174.054 30.9977ZM173.523 29.3687L173.064 28.4507C173.298 28.3367 173.577 28.2287 173.901 28.1267C174.231 28.0247 174.582 27.9737 174.954 27.9737C175.326 27.9737 175.656 28.0277 175.944 28.1357C176.238 28.2377 176.466 28.3877 176.628 28.5857C176.796 28.7837 176.88 29.0267 176.88 29.3147V32.2307H175.575V29.5847C175.575 29.4107 175.509 29.2727 175.377 29.1707C175.251 29.0627 175.074 29.0087 174.846 29.0087C174.648 29.0087 174.459 29.0297 174.279 29.0717C174.105 29.1137 173.952 29.1647 173.82 29.2247C173.688 29.2787 173.589 29.3267 173.523 29.3687ZM182.252 28.0907V32.2307H180.947V29.3237H179.417V30.7907C179.417 31.1147 179.357 31.3847 179.237 31.6007C179.117 31.8107 178.913 31.9697 178.625 32.0777C178.343 32.1797 177.953 32.2307 177.455 32.2307V31.0157C177.635 31.0157 177.788 30.9827 177.914 30.9167C178.046 30.8447 178.112 30.6917 178.112 30.4577V28.0907H182.252ZM183.567 28.0907H184.926V32.2307H183.567V28.0907ZM184.629 30.3677V29.4857H185.916C186.342 29.4857 186.699 29.5907 186.987 29.8007C187.281 30.0047 187.428 30.3287 187.428 30.7727C187.428 31.0667 187.362 31.3247 187.23 31.5467C187.098 31.7687 186.918 31.9397 186.69 32.0597C186.462 32.1737 186.204 32.2307 185.916 32.2307H184.629V31.1777H185.673C185.775 31.1777 185.859 31.1627 185.925 31.1327C185.997 31.1027 186.051 31.0577 186.087 30.9977C186.129 30.9317 186.15 30.8567 186.15 30.7727C186.15 30.6527 186.108 30.5567 186.024 30.4847C185.946 30.4067 185.829 30.3677 185.673 30.3677H184.629ZM188.831 30.5567V29.5397H192.179V30.5567H188.831ZM191.567 28.0907H192.872V32.2307H191.567V28.0907ZM188.408 28.0907H189.722V32.2307H188.408V28.0907ZM193.702 30.1607C193.702 29.7227 193.804 29.3417 194.008 29.0177C194.212 28.6937 194.494 28.4417 194.854 28.2617C195.214 28.0817 195.619 27.9917 196.069 27.9917C196.519 27.9917 196.921 28.0817 197.275 28.2617C197.635 28.4417 197.917 28.6937 198.121 29.0177C198.331 29.3417 198.436 29.7227 198.436 30.1607C198.436 30.5927 198.331 30.9707 198.121 31.2947C197.917 31.6187 197.635 31.8707 197.275 32.0507C196.921 32.2307 196.519 32.3207 196.069 32.3207C195.619 32.3207 195.214 32.2307 194.854 32.0507C194.494 31.8707 194.212 31.6187 194.008 31.2947C193.804 30.9707 193.702 30.5927 193.702 30.1607ZM195.097 30.1607C195.097 30.3767 195.142 30.5627 195.232 30.7187C195.322 30.8687 195.439 30.9857 195.583 31.0697C195.727 31.1537 195.889 31.1957 196.069 31.1957C196.243 31.1957 196.402 31.1537 196.546 31.0697C196.696 30.9857 196.813 30.8687 196.897 30.7187C196.987 30.5627 197.032 30.3767 197.032 30.1607C197.032 29.9447 196.987 29.7587 196.897 29.6027C196.813 29.4467 196.696 29.3267 196.546 29.2427C196.402 29.1587 196.243 29.1167 196.069 29.1167C195.889 29.1167 195.727 29.1587 195.583 29.2427C195.439 29.3267 195.322 29.4467 195.232 29.6027C195.142 29.7587 195.097 29.9447 195.097 30.1607ZM203.223 32.2307L202.656 29.3957L203.34 27.7757L204.591 32.2307H203.223ZM201.396 31.0517L203.34 27.7757L203.43 29.6117L201.666 32.5097L201.396 31.0517ZM201.666 32.5097L199.929 29.6117L200.019 27.7757L201.936 31.0517L201.666 32.5097ZM198.768 32.2307L200.019 27.7757L200.703 29.3957L200.136 32.2307H198.768ZM209.364 28.0907L206.664 34.2107H205.296L206.304 31.8977L204.513 28.0907H206.007L207.348 31.4117L206.646 31.4027L207.969 28.0907H209.364ZM111.5 43.2307L110.933 40.3957L111.617 38.7757L112.868 43.2307H111.5ZM109.673 42.0517L111.617 38.7757L111.707 40.6117L109.943 43.5097L109.673 42.0517ZM109.943 43.5097L108.206 40.6117L108.296 38.7757L110.213 42.0517L109.943 43.5097ZM107.045 43.2307L108.296 38.7757L108.98 40.3957L108.413 43.2307H107.045ZM114.499 41.9977C114.499 42.0937 114.526 42.1747 114.58 42.2407C114.634 42.3007 114.706 42.3487 114.796 42.3847C114.892 42.4147 114.991 42.4297 115.093 42.4297C115.261 42.4297 115.414 42.4027 115.552 42.3487C115.696 42.2947 115.81 42.2047 115.894 42.0787C115.978 41.9527 116.02 41.7787 116.02 41.5567L116.164 42.0607C116.164 42.3247 116.095 42.5527 115.957 42.7447C115.825 42.9307 115.642 43.0747 115.408 43.1767C115.18 43.2727 114.922 43.3207 114.634 43.3207C114.346 43.3207 114.088 43.2727 113.86 43.1767C113.632 43.0747 113.452 42.9307 113.32 42.7447C113.194 42.5527 113.131 42.3217 113.131 42.0517C113.131 41.7757 113.203 41.5387 113.347 41.3407C113.497 41.1427 113.707 40.9897 113.977 40.8817C114.247 40.7737 114.562 40.7197 114.922 40.7197C115.132 40.7197 115.33 40.7437 115.516 40.7917C115.708 40.8337 115.873 40.8907 116.011 40.9627C116.155 41.0287 116.257 41.0947 116.317 41.1607V41.7997C116.161 41.6857 115.999 41.6017 115.831 41.5477C115.669 41.4877 115.471 41.4577 115.237 41.4577C115.081 41.4577 114.946 41.4817 114.832 41.5297C114.724 41.5717 114.64 41.6317 114.58 41.7097C114.526 41.7877 114.499 41.8837 114.499 41.9977ZM113.968 40.3687L113.509 39.4507C113.743 39.3367 114.022 39.2287 114.346 39.1267C114.676 39.0247 115.027 38.9737 115.399 38.9737C115.771 38.9737 116.101 39.0277 116.389 39.1357C116.683 39.2377 116.911 39.3877 117.073 39.5857C117.241 39.7837 117.325 40.0267 117.325 40.3147V43.2307H116.02V40.5847C116.02 40.4107 115.954 40.2727 115.822 40.1707C115.696 40.0627 115.519 40.0087 115.291 40.0087C115.093 40.0087 114.904 40.0297 114.724 40.0717C114.55 40.1137 114.397 40.1647 114.265 40.2247C114.133 40.2787 114.034 40.3267 113.968 40.3687ZM119.485 41.1607C119.485 41.3827 119.533 41.5747 119.629 41.7367C119.725 41.8927 119.857 42.0157 120.025 42.1057C120.199 42.1957 120.385 42.2407 120.583 42.2407C120.751 42.2407 120.91 42.2167 121.06 42.1687C121.216 42.1147 121.357 42.0427 121.483 41.9527C121.615 41.8627 121.723 41.7517 121.807 41.6197V42.9427C121.663 43.0567 121.483 43.1497 121.267 43.2217C121.051 43.2877 120.787 43.3207 120.475 43.3207C120.019 43.3207 119.608 43.2307 119.242 43.0507C118.882 42.8707 118.597 42.6187 118.387 42.2947C118.183 41.9707 118.081 41.5927 118.081 41.1607C118.081 40.7227 118.183 40.3447 118.387 40.0267C118.597 39.7027 118.882 39.4507 119.242 39.2707C119.608 39.0907 120.019 39.0007 120.475 39.0007C120.787 39.0007 121.051 39.0367 121.267 39.1087C121.483 39.1747 121.663 39.2587 121.807 39.3607V40.6927C121.723 40.5607 121.612 40.4497 121.474 40.3597C121.342 40.2697 121.198 40.2007 121.042 40.1527C120.886 40.1047 120.733 40.0807 120.583 40.0807C120.385 40.0807 120.199 40.1287 120.025 40.2247C119.857 40.3207 119.725 40.4497 119.629 40.6117C119.533 40.7737 119.485 40.9567 119.485 41.1607ZM122.303 39.0907H125.21V40.2157H122.303V39.0907ZM123.104 39.2707H124.409V43.2307H123.104V39.2707ZM126.176 41.4487V40.6927H128.516C128.492 40.5247 128.447 40.3837 128.381 40.2697C128.321 40.1557 128.234 40.0687 128.12 40.0087C128.012 39.9427 127.877 39.9097 127.715 39.9097C127.529 39.9097 127.367 39.9517 127.229 40.0357C127.097 40.1137 126.992 40.2307 126.914 40.3867C126.836 40.5367 126.797 40.7227 126.797 40.9447L126.779 41.1607C126.779 41.4427 126.821 41.6707 126.905 41.8447C126.995 42.0187 127.112 42.1447 127.256 42.2227C127.406 42.3007 127.568 42.3397 127.742 42.3397C127.91 42.3397 128.057 42.3187 128.183 42.2767C128.315 42.2347 128.429 42.1747 128.525 42.0967C128.621 42.0127 128.702 41.9137 128.768 41.7997L129.983 42.0967C129.845 42.3487 129.68 42.5677 129.488 42.7537C129.296 42.9337 129.059 43.0747 128.777 43.1767C128.501 43.2727 128.162 43.3207 127.76 43.3207C127.262 43.3207 126.836 43.2277 126.482 43.0417C126.134 42.8557 125.867 42.6007 125.681 42.2767C125.501 41.9467 125.411 41.5747 125.411 41.1607C125.411 41.0827 125.414 41.0077 125.42 40.9357C125.426 40.8637 125.435 40.7917 125.447 40.7197C125.507 40.3777 125.63 40.0777 125.816 39.8197C126.008 39.5617 126.263 39.3607 126.581 39.2167C126.905 39.0727 127.292 39.0007 127.742 39.0007C128.228 39.0007 128.636 39.0847 128.966 39.2527C129.296 39.4207 129.545 39.6607 129.713 39.9727C129.887 40.2847 129.974 40.6597 129.974 41.0977C129.974 41.1337 129.974 41.1847 129.974 41.2507C129.974 41.3107 129.968 41.3767 129.956 41.4487H126.176ZM132.181 45.2107H130.822V39.0907H132.181V45.2107ZM135.565 41.1607C135.565 41.6407 135.469 42.0457 135.277 42.3757C135.091 42.7057 134.848 42.9547 134.548 43.1227C134.254 43.2907 133.936 43.3747 133.594 43.3747C133.234 43.3747 132.922 43.2847 132.658 43.1047C132.4 42.9187 132.202 42.6607 132.064 42.3307C131.926 41.9947 131.857 41.6047 131.857 41.1607C131.857 40.7107 131.926 40.3207 132.064 39.9907C132.202 39.6607 132.4 39.4057 132.658 39.2257C132.922 39.0397 133.234 38.9467 133.594 38.9467C133.936 38.9467 134.254 39.0307 134.548 39.1987C134.848 39.3667 135.091 39.6157 135.277 39.9457C135.469 40.2697 135.565 40.6747 135.565 41.1607ZM134.134 41.1607C134.134 40.9447 134.089 40.7617 133.999 40.6117C133.909 40.4617 133.789 40.3477 133.639 40.2697C133.489 40.1917 133.324 40.1527 133.144 40.1527C132.988 40.1527 132.835 40.1917 132.685 40.2697C132.541 40.3417 132.421 40.4527 132.325 40.6027C132.229 40.7527 132.181 40.9387 132.181 41.1607C132.181 41.3827 132.229 41.5687 132.325 41.7187C132.421 41.8687 132.541 41.9827 132.685 42.0607C132.835 42.1327 132.988 42.1687 133.144 42.1687C133.324 42.1687 133.489 42.1297 133.639 42.0517C133.789 41.9737 133.909 41.8597 133.999 41.7097C134.089 41.5597 134.134 41.3767 134.134 41.1607ZM137.528 41.1607C137.528 41.3827 137.576 41.5747 137.672 41.7367C137.768 41.8927 137.9 42.0157 138.068 42.1057C138.242 42.1957 138.428 42.2407 138.626 42.2407C138.794 42.2407 138.953 42.2167 139.103 42.1687C139.259 42.1147 139.4 42.0427 139.526 41.9527C139.658 41.8627 139.766 41.7517 139.85 41.6197V42.9427C139.706 43.0567 139.526 43.1497 139.31 43.2217C139.094 43.2877 138.83 43.3207 138.518 43.3207C138.062 43.3207 137.651 43.2307 137.285 43.0507C136.925 42.8707 136.64 42.6187 136.43 42.2947C136.226 41.9707 136.124 41.5927 136.124 41.1607C136.124 40.7227 136.226 40.3447 136.43 40.0267C136.64 39.7027 136.925 39.4507 137.285 39.2707C137.651 39.0907 138.062 39.0007 138.518 39.0007C138.83 39.0007 139.094 39.0367 139.31 39.1087C139.526 39.1747 139.706 39.2587 139.85 39.3607V40.6927C139.766 40.5607 139.655 40.4497 139.517 40.3597C139.385 40.2697 139.241 40.2007 139.085 40.1527C138.929 40.1047 138.776 40.0807 138.626 40.0807C138.428 40.0807 138.242 40.1287 138.068 40.2247C137.9 40.3207 137.768 40.4497 137.672 40.6117C137.576 40.7737 137.528 40.9567 137.528 41.1607ZM140.347 39.0907H143.254V40.2157H140.347V39.0907ZM141.148 39.2707H142.453V43.2307H141.148V39.2707ZM144.757 41.0707H146.233C146.521 41.0707 146.779 41.1007 147.007 41.1607C147.235 41.2207 147.415 41.3257 147.547 41.4757C147.679 41.6257 147.745 41.8357 147.745 42.1057C147.745 42.4177 147.64 42.6847 147.43 42.9067C147.226 43.1227 146.887 43.2307 146.413 43.2307H144.757V42.3757H145.954C146.146 42.3757 146.278 42.3337 146.35 42.2497C146.428 42.1597 146.467 42.0637 146.467 41.9617C146.467 41.9077 146.458 41.8567 146.44 41.8087C146.422 41.7607 146.392 41.7187 146.35 41.6827C146.314 41.6467 146.263 41.6167 146.197 41.5927C146.131 41.5687 146.05 41.5567 145.954 41.5567H144.757V41.0707ZM144.757 41.2507V40.7197H145.864C145.936 40.7197 145.996 40.7107 146.044 40.6927C146.098 40.6687 146.143 40.6387 146.179 40.6027C146.215 40.5667 146.242 40.5247 146.26 40.4767C146.278 40.4287 146.287 40.3807 146.287 40.3327C146.287 40.2247 146.251 40.1347 146.179 40.0627C146.107 39.9847 146.002 39.9457 145.864 39.9457H144.757V39.0907H146.143C146.401 39.0907 146.635 39.1297 146.845 39.2077C147.061 39.2797 147.235 39.3997 147.367 39.5677C147.499 39.7297 147.565 39.9457 147.565 40.2157C147.565 40.4497 147.499 40.6447 147.367 40.8007C147.235 40.9507 147.061 41.0647 146.845 41.1427C146.635 41.2147 146.401 41.2507 146.143 41.2507H144.757ZM143.974 39.0907H145.279V43.2307H143.974V39.0907ZM152.745 39.0907L150.045 45.2107H148.677L149.685 42.8977L147.894 39.0907H149.388L150.729 42.4117L150.027 42.4027L151.35 39.0907H152.745ZM157.04 41.1607C157.04 41.3827 157.088 41.5747 157.184 41.7367C157.28 41.8927 157.412 42.0157 157.58 42.1057C157.754 42.1957 157.94 42.2407 158.138 42.2407C158.306 42.2407 158.465 42.2167 158.615 42.1687C158.771 42.1147 158.912 42.0427 159.038 41.9527C159.17 41.8627 159.278 41.7517 159.362 41.6197V42.9427C159.218 43.0567 159.038 43.1497 158.822 43.2217C158.606 43.2877 158.342 43.3207 158.03 43.3207C157.574 43.3207 157.163 43.2307 156.797 43.0507C156.437 42.8707 156.152 42.6187 155.942 42.2947C155.738 41.9707 155.636 41.5927 155.636 41.1607C155.636 40.7227 155.738 40.3447 155.942 40.0267C156.152 39.7027 156.437 39.4507 156.797 39.2707C157.163 39.0907 157.574 39.0007 158.03 39.0007C158.342 39.0007 158.606 39.0367 158.822 39.1087C159.038 39.1747 159.218 39.2587 159.362 39.3607V40.6927C159.278 40.5607 159.167 40.4497 159.029 40.3597C158.897 40.2697 158.753 40.2007 158.597 40.1527C158.441 40.1047 158.288 40.0807 158.138 40.0807C157.94 40.0807 157.754 40.1287 157.58 40.2247C157.412 40.3207 157.28 40.4497 157.184 40.6117C157.088 40.7737 157.04 40.9567 157.04 41.1607ZM161.694 45.2107H160.335V39.0907H161.694V45.2107ZM165.078 41.1607C165.078 41.6407 164.982 42.0457 164.79 42.3757C164.604 42.7057 164.361 42.9547 164.061 43.1227C163.767 43.2907 163.449 43.3747 163.107 43.3747C162.747 43.3747 162.435 43.2847 162.171 43.1047C161.913 42.9187 161.715 42.6607 161.577 42.3307C161.439 41.9947 161.37 41.6047 161.37 41.1607C161.37 40.7107 161.439 40.3207 161.577 39.9907C161.715 39.6607 161.913 39.4057 162.171 39.2257C162.435 39.0397 162.747 38.9467 163.107 38.9467C163.449 38.9467 163.767 39.0307 164.061 39.1987C164.361 39.3667 164.604 39.6157 164.79 39.9457C164.982 40.2697 165.078 40.6747 165.078 41.1607ZM163.647 41.1607C163.647 40.9447 163.602 40.7617 163.512 40.6117C163.422 40.4617 163.302 40.3477 163.152 40.2697C163.002 40.1917 162.837 40.1527 162.657 40.1527C162.501 40.1527 162.348 40.1917 162.198 40.2697C162.054 40.3417 161.934 40.4527 161.838 40.6027C161.742 40.7527 161.694 40.9387 161.694 41.1607C161.694 41.3827 161.742 41.5687 161.838 41.7187C161.934 41.8687 162.054 41.9827 162.198 42.0607C162.348 42.1327 162.501 42.1687 162.657 42.1687C162.837 42.1687 163.002 42.1297 163.152 42.0517C163.302 41.9737 163.422 41.8597 163.512 41.7097C163.602 41.5597 163.647 41.3767 163.647 41.1607ZM166.421 41.4487V40.6927H168.761C168.737 40.5247 168.692 40.3837 168.626 40.2697C168.566 40.1557 168.479 40.0687 168.365 40.0087C168.257 39.9427 168.122 39.9097 167.96 39.9097C167.774 39.9097 167.612 39.9517 167.474 40.0357C167.342 40.1137 167.237 40.2307 167.159 40.3867C167.081 40.5367 167.042 40.7227 167.042 40.9447L167.024 41.1607C167.024 41.4427 167.066 41.6707 167.15 41.8447C167.24 42.0187 167.357 42.1447 167.501 42.2227C167.651 42.3007 167.813 42.3397 167.987 42.3397C168.155 42.3397 168.302 42.3187 168.428 42.2767C168.56 42.2347 168.674 42.1747 168.77 42.0967C168.866 42.0127 168.947 41.9137 169.013 41.7997L170.228 42.0967C170.09 42.3487 169.925 42.5677 169.733 42.7537C169.541 42.9337 169.304 43.0747 169.022 43.1767C168.746 43.2727 168.407 43.3207 168.005 43.3207C167.507 43.3207 167.081 43.2277 166.727 43.0417C166.379 42.8557 166.112 42.6007 165.926 42.2767C165.746 41.9467 165.656 41.5747 165.656 41.1607C165.656 41.0827 165.659 41.0077 165.665 40.9357C165.671 40.8637 165.68 40.7917 165.692 40.7197C165.752 40.3777 165.875 40.0777 166.061 39.8197C166.253 39.5617 166.508 39.3607 166.826 39.2167C167.15 39.0727 167.537 39.0007 167.987 39.0007C168.473 39.0007 168.881 39.0847 169.211 39.2527C169.541 39.4207 169.79 39.6607 169.958 39.9727C170.132 40.2847 170.219 40.6597 170.219 41.0977C170.219 41.1337 170.219 41.1847 170.219 41.2507C170.219 41.3107 170.213 41.3767 170.201 41.4487H166.421ZM173.247 40.7287L172.257 42.9607L170.943 42.6817L173.247 38.7757L175.551 42.6817L174.237 42.9607L173.247 40.7287ZM174.759 43.2307H171.78V44.0407H170.457V42.1597H176.037V44.0407H174.759V43.2307ZM181.167 40.2607L176.991 43.5457L177.036 42.0607L181.212 38.7757L181.167 40.2607ZM178.305 39.0907V42.2767L176.991 43.5457V39.0907H178.305ZM181.212 38.7757V43.2307H179.907V40.0447L181.212 38.7757ZM189.192 40.2607L185.016 43.5457L185.061 42.0607L189.237 38.7757L189.192 40.2607ZM186.33 39.0907V42.2767L185.016 43.5457V39.0907H186.33ZM189.237 38.7757V43.2307H187.932V40.0447L189.237 38.7757ZM190.747 41.5567V40.5397H194.095V41.5567H190.747ZM193.483 39.0907H194.788V43.2307H193.483V39.0907ZM190.324 39.0907H191.638V43.2307H190.324V39.0907ZM196.788 41.0707H198.264C198.552 41.0707 198.81 41.1007 199.038 41.1607C199.266 41.2207 199.446 41.3257 199.578 41.4757C199.71 41.6257 199.776 41.8357 199.776 42.1057C199.776 42.4177 199.671 42.6847 199.461 42.9067C199.257 43.1227 198.918 43.2307 198.444 43.2307H196.788V42.3757H197.985C198.177 42.3757 198.309 42.3337 198.381 42.2497C198.459 42.1597 198.498 42.0637 198.498 41.9617C198.498 41.9077 198.489 41.8567 198.471 41.8087C198.453 41.7607 198.423 41.7187 198.381 41.6827C198.345 41.6467 198.294 41.6167 198.228 41.5927C198.162 41.5687 198.081 41.5567 197.985 41.5567H196.788V41.0707ZM196.788 41.2507V40.7197H197.895C197.967 40.7197 198.027 40.7107 198.075 40.6927C198.129 40.6687 198.174 40.6387 198.21 40.6027C198.246 40.5667 198.273 40.5247 198.291 40.4767C198.309 40.4287 198.318 40.3807 198.318 40.3327C198.318 40.2247 198.282 40.1347 198.21 40.0627C198.138 39.9847 198.033 39.9457 197.895 39.9457H196.788V39.0907H198.174C198.432 39.0907 198.666 39.1297 198.876 39.2077C199.092 39.2797 199.266 39.3997 199.398 39.5677C199.53 39.7297 199.596 39.9457 199.596 40.2157C199.596 40.4497 199.53 40.6447 199.398 40.8007C199.266 40.9507 199.092 41.0647 198.876 41.1427C198.666 41.2147 198.432 41.2507 198.174 41.2507H196.788ZM196.005 39.0907H197.31V43.2307H196.005V39.0907ZM201.634 41.9977C201.634 42.0937 201.661 42.1747 201.715 42.2407C201.769 42.3007 201.841 42.3487 201.931 42.3847C202.027 42.4147 202.126 42.4297 202.228 42.4297C202.396 42.4297 202.549 42.4027 202.687 42.3487C202.831 42.2947 202.945 42.2047 203.029 42.0787C203.113 41.9527 203.155 41.7787 203.155 41.5567L203.299 42.0607C203.299 42.3247 203.23 42.5527 203.092 42.7447C202.96 42.9307 202.777 43.0747 202.543 43.1767C202.315 43.2727 202.057 43.3207 201.769 43.3207C201.481 43.3207 201.223 43.2727 200.995 43.1767C200.767 43.0747 200.587 42.9307 200.455 42.7447C200.329 42.5527 200.266 42.3217 200.266 42.0517C200.266 41.7757 200.338 41.5387 200.482 41.3407C200.632 41.1427 200.842 40.9897 201.112 40.8817C201.382 40.7737 201.697 40.7197 202.057 40.7197C202.267 40.7197 202.465 40.7437 202.651 40.7917C202.843 40.8337 203.008 40.8907 203.146 40.9627C203.29 41.0287 203.392 41.0947 203.452 41.1607V41.7997C203.296 41.6857 203.134 41.6017 202.966 41.5477C202.804 41.4877 202.606 41.4577 202.372 41.4577C202.216 41.4577 202.081 41.4817 201.967 41.5297C201.859 41.5717 201.775 41.6317 201.715 41.7097C201.661 41.7877 201.634 41.8837 201.634 41.9977ZM201.103 40.3687L200.644 39.4507C200.878 39.3367 201.157 39.2287 201.481 39.1267C201.811 39.0247 202.162 38.9737 202.534 38.9737C202.906 38.9737 203.236 39.0277 203.524 39.1357C203.818 39.2377 204.046 39.3877 204.208 39.5857C204.376 39.7837 204.46 40.0267 204.46 40.3147V43.2307H203.155V40.5847C203.155 40.4107 203.089 40.2727 202.957 40.1707C202.831 40.0627 202.654 40.0087 202.426 40.0087C202.228 40.0087 202.039 40.0297 201.859 40.0717C201.685 40.1137 201.532 40.1647 201.4 40.2247C201.268 40.2787 201.169 40.3267 201.103 40.3687ZM209.832 39.0907V43.2307H208.527V40.3237H206.997V41.7907C206.997 42.1147 206.937 42.3847 206.817 42.6007C206.697 42.8107 206.493 42.9697 206.205 43.0777C205.923 43.1797 205.533 43.2307 205.035 43.2307V42.0157C205.215 42.0157 205.368 41.9827 205.494 41.9167C205.626 41.8447 205.692 41.6917 205.692 41.4577V39.0907H209.832ZM215.278 40.2607L211.102 43.5457L211.147 42.0607L215.323 38.7757L215.278 40.2607ZM212.416 39.0907V42.2767L211.102 43.5457V39.0907H212.416ZM215.323 38.7757V43.2307H214.018V40.0447L215.323 38.7757ZM219.029 40.7287L218.039 42.9607L216.725 42.6817L219.029 38.7757L221.333 42.6817L220.019 42.9607L219.029 40.7287ZM220.541 43.2307H217.562V44.0407H216.239V42.1597H221.819V44.0407H220.541V43.2307ZM222.513 41.1607C222.513 40.7227 222.615 40.3417 222.819 40.0177C223.023 39.6937 223.305 39.4417 223.665 39.2617C224.025 39.0817 224.43 38.9917 224.88 38.9917C225.33 38.9917 225.732 39.0817 226.086 39.2617C226.446 39.4417 226.728 39.6937 226.932 40.0177C227.142 40.3417 227.247 40.7227 227.247 41.1607C227.247 41.5927 227.142 41.9707 226.932 42.2947C226.728 42.6187 226.446 42.8707 226.086 43.0507C225.732 43.2307 225.33 43.3207 224.88 43.3207C224.43 43.3207 224.025 43.2307 223.665 43.0507C223.305 42.8707 223.023 42.6187 222.819 42.2947C222.615 41.9707 222.513 41.5927 222.513 41.1607ZM223.908 41.1607C223.908 41.3767 223.953 41.5627 224.043 41.7187C224.133 41.8687 224.25 41.9857 224.394 42.0697C224.538 42.1537 224.7 42.1957 224.88 42.1957C225.054 42.1957 225.213 42.1537 225.357 42.0697C225.507 41.9857 225.624 41.8687 225.708 41.7187C225.798 41.5627 225.843 41.3767 225.843 41.1607C225.843 40.9447 225.798 40.7587 225.708 40.6027C225.624 40.4467 225.507 40.3267 225.357 40.2427C225.213 40.1587 225.054 40.1167 224.88 40.1167C224.7 40.1167 224.538 40.1587 224.394 40.2427C224.25 40.3267 224.133 40.4467 224.043 40.6027C223.953 40.7587 223.908 40.9447 223.908 41.1607ZM228.991 41.0707H230.467C230.755 41.0707 231.013 41.1007 231.241 41.1607C231.469 41.2207 231.649 41.3257 231.781 41.4757C231.913 41.6257 231.979 41.8357 231.979 42.1057C231.979 42.4177 231.874 42.6847 231.664 42.9067C231.46 43.1227 231.121 43.2307 230.647 43.2307H228.991V42.3757H230.188C230.38 42.3757 230.512 42.3337 230.584 42.2497C230.662 42.1597 230.701 42.0637 230.701 41.9617C230.701 41.9077 230.692 41.8567 230.674 41.8087C230.656 41.7607 230.626 41.7187 230.584 41.6827C230.548 41.6467 230.497 41.6167 230.431 41.5927C230.365 41.5687 230.284 41.5567 230.188 41.5567H228.991V41.0707ZM228.991 41.2507V40.7197H230.098C230.17 40.7197 230.23 40.7107 230.278 40.6927C230.332 40.6687 230.377 40.6387 230.413 40.6027C230.449 40.5667 230.476 40.5247 230.494 40.4767C230.512 40.4287 230.521 40.3807 230.521 40.3327C230.521 40.2247 230.485 40.1347 230.413 40.0627C230.341 39.9847 230.236 39.9457 230.098 39.9457H228.991V39.0907H230.377C230.635 39.0907 230.869 39.1297 231.079 39.2077C231.295 39.2797 231.469 39.3997 231.601 39.5677C231.733 39.7297 231.799 39.9457 231.799 40.2157C231.799 40.4497 231.733 40.6447 231.601 40.8007C231.469 40.9507 231.295 41.0647 231.079 41.1427C230.869 41.2147 230.635 41.2507 230.377 41.2507H228.991ZM228.208 39.0907H229.513V43.2307H228.208V39.0907ZM239.676 40.2607L235.5 43.5457L235.545 42.0607L239.721 38.7757L239.676 40.2607ZM236.814 39.0907V42.2767L235.5 43.5457V39.0907H236.814ZM239.721 38.7757V43.2307H238.416V40.0447L239.721 38.7757ZM247.863 39.0907V43.2307H246.558V40.3237H245.028V41.7907C245.028 42.1147 244.968 42.3847 244.848 42.6007C244.728 42.8107 244.524 42.9697 244.236 43.0777C243.954 43.1797 243.564 43.2307 243.066 43.2307V42.0157C243.246 42.0157 243.399 41.9827 243.525 41.9167C243.657 41.8447 243.723 41.6917 243.723 41.4577V39.0907H247.863ZM253.308 40.2607L249.132 43.5457L249.177 42.0607L253.353 38.7757L253.308 40.2607ZM250.446 39.0907V42.2767L249.132 43.5457V39.0907H250.446ZM253.353 38.7757V43.2307H252.048V40.0447L253.353 38.7757ZM258.598 42.1057H259.318V44.1487H258.049V43.2307H254.44V39.0907H255.808V42.1057H257.239V39.0907H258.598V42.1057ZM108.674 52.1607C108.674 52.3827 108.722 52.5747 108.818 52.7367C108.914 52.8927 109.046 53.0157 109.214 53.1057C109.388 53.1957 109.574 53.2407 109.772 53.2407C109.94 53.2407 110.099 53.2167 110.249 53.1687C110.405 53.1147 110.546 53.0427 110.672 52.9527C110.804 52.8627 110.912 52.7517 110.996 52.6197V53.9427C110.852 54.0567 110.672 54.1497 110.456 54.2217C110.24 54.2877 109.976 54.3207 109.664 54.3207C109.208 54.3207 108.797 54.2307 108.431 54.0507C108.071 53.8707 107.786 53.6187 107.576 53.2947C107.372 52.9707 107.27 52.5927 107.27 52.1607C107.27 51.7227 107.372 51.3447 107.576 51.0267C107.786 50.7027 108.071 50.4507 108.431 50.2707C108.797 50.0907 109.208 50.0007 109.664 50.0007C109.976 50.0007 110.24 50.0367 110.456 50.1087C110.672 50.1747 110.852 50.2587 110.996 50.3607V51.6927C110.912 51.5607 110.801 51.4497 110.663 51.3597C110.531 51.2697 110.387 51.2007 110.231 51.1527C110.075 51.1047 109.922 51.0807 109.772 51.0807C109.574 51.0807 109.388 51.1287 109.214 51.2247C109.046 51.3207 108.914 51.4497 108.818 51.6117C108.722 51.7737 108.674 51.9567 108.674 52.1607ZM114.434 52.1607C114.434 51.7227 114.536 51.3417 114.74 51.0177C114.944 50.6937 115.226 50.4417 115.586 50.2617C115.946 50.0817 116.351 49.9917 116.801 49.9917C117.251 49.9917 117.653 50.0817 118.007 50.2617C118.367 50.4417 118.649 50.6937 118.853 51.0177C119.063 51.3417 119.168 51.7227 119.168 52.1607C119.168 52.5927 119.063 52.9707 118.853 53.2947C118.649 53.6187 118.367 53.8707 118.007 54.0507C117.653 54.2307 117.251 54.3207 116.801 54.3207C116.351 54.3207 115.946 54.2307 115.586 54.0507C115.226 53.8707 114.944 53.6187 114.74 53.2947C114.536 52.9707 114.434 52.5927 114.434 52.1607ZM115.829 52.1607C115.829 52.3767 115.874 52.5627 115.964 52.7187C116.054 52.8687 116.171 52.9857 116.315 53.0697C116.459 53.1537 116.621 53.1957 116.801 53.1957C116.975 53.1957 117.134 53.1537 117.278 53.0697C117.428 52.9857 117.545 52.8687 117.629 52.7187C117.719 52.5627 117.764 52.3767 117.764 52.1607C117.764 51.9447 117.719 51.7587 117.629 51.6027C117.545 51.4467 117.428 51.3267 117.278 51.2427C117.134 51.1587 116.975 51.1167 116.801 51.1167C116.621 51.1167 116.459 51.1587 116.315 51.2427C116.171 51.3267 116.054 51.4467 115.964 51.6027C115.874 51.7587 115.829 51.9447 115.829 52.1607ZM120.003 50.0907H122.658V51.2157H121.344V54.2307H120.003V50.0907ZM124.561 56.2107H123.202V50.0907H124.561V56.2107ZM127.945 52.1607C127.945 52.6407 127.849 53.0457 127.657 53.3757C127.471 53.7057 127.228 53.9547 126.928 54.1227C126.634 54.2907 126.316 54.3747 125.974 54.3747C125.614 54.3747 125.302 54.2847 125.038 54.1047C124.78 53.9187 124.582 53.6607 124.444 53.3307C124.306 52.9947 124.237 52.6047 124.237 52.1607C124.237 51.7107 124.306 51.3207 124.444 50.9907C124.582 50.6607 124.78 50.4057 125.038 50.2257C125.302 50.0397 125.614 49.9467 125.974 49.9467C126.316 49.9467 126.634 50.0307 126.928 50.1987C127.228 50.3667 127.471 50.6157 127.657 50.9457C127.849 51.2697 127.945 51.6747 127.945 52.1607ZM126.514 52.1607C126.514 51.9447 126.469 51.7617 126.379 51.6117C126.289 51.4617 126.169 51.3477 126.019 51.2697C125.869 51.1917 125.704 51.1527 125.524 51.1527C125.368 51.1527 125.215 51.1917 125.065 51.2697C124.921 51.3417 124.801 51.4527 124.705 51.6027C124.609 51.7527 124.561 51.9387 124.561 52.1607C124.561 52.3827 124.609 52.5687 124.705 52.7187C124.801 52.8687 124.921 52.9827 125.065 53.0607C125.215 53.1327 125.368 53.1687 125.524 53.1687C125.704 53.1687 125.869 53.1297 126.019 53.0517C126.169 52.9737 126.289 52.8597 126.379 52.7097C126.469 52.5597 126.514 52.3767 126.514 52.1607ZM129.818 52.9977C129.818 53.0937 129.845 53.1747 129.899 53.2407C129.953 53.3007 130.025 53.3487 130.115 53.3847C130.211 53.4147 130.31 53.4297 130.412 53.4297C130.58 53.4297 130.733 53.4027 130.871 53.3487C131.015 53.2947 131.129 53.2047 131.213 53.0787C131.297 52.9527 131.339 52.7787 131.339 52.5567L131.483 53.0607C131.483 53.3247 131.414 53.5527 131.276 53.7447C131.144 53.9307 130.961 54.0747 130.727 54.1767C130.499 54.2727 130.241 54.3207 129.953 54.3207C129.665 54.3207 129.407 54.2727 129.179 54.1767C128.951 54.0747 128.771 53.9307 128.639 53.7447C128.513 53.5527 128.45 53.3217 128.45 53.0517C128.45 52.7757 128.522 52.5387 128.666 52.3407C128.816 52.1427 129.026 51.9897 129.296 51.8817C129.566 51.7737 129.881 51.7197 130.241 51.7197C130.451 51.7197 130.649 51.7437 130.835 51.7917C131.027 51.8337 131.192 51.8907 131.33 51.9627C131.474 52.0287 131.576 52.0947 131.636 52.1607V52.7997C131.48 52.6857 131.318 52.6017 131.15 52.5477C130.988 52.4877 130.79 52.4577 130.556 52.4577C130.4 52.4577 130.265 52.4817 130.151 52.5297C130.043 52.5717 129.959 52.6317 129.899 52.7097C129.845 52.7877 129.818 52.8837 129.818 52.9977ZM129.287 51.3687L128.828 50.4507C129.062 50.3367 129.341 50.2287 129.665 50.1267C129.995 50.0247 130.346 49.9737 130.718 49.9737C131.09 49.9737 131.42 50.0277 131.708 50.1357C132.002 50.2377 132.23 50.3877 132.392 50.5857C132.56 50.7837 132.644 51.0267 132.644 51.3147V54.2307H131.339V51.5847C131.339 51.4107 131.273 51.2727 131.141 51.1707C131.015 51.0627 130.838 51.0087 130.61 51.0087C130.412 51.0087 130.223 51.0297 130.043 51.0717C129.869 51.1137 129.716 51.1647 129.584 51.2247C129.452 51.2787 129.353 51.3267 129.287 51.3687ZM134.084 52.5567V51.5397H137.432V52.5567H134.084ZM136.82 50.0907H138.125V54.2307H136.82V50.0907ZM133.661 50.0907H134.975V54.2307H133.661V50.0907ZM143.392 51.2607L139.216 54.5457L139.261 53.0607L143.437 49.7757L143.392 51.2607ZM140.53 50.0907V53.2767L139.216 54.5457V50.0907H140.53ZM143.437 49.7757V54.2307H142.132V51.0447L143.437 49.7757ZM146.063 53.1957L146.459 52.0707H147.476V53.1957H146.063ZM146.963 50.0907H148.322V54.2307H146.963V50.0907ZM145.802 50.0907V51.3867C145.802 51.5547 145.823 51.6897 145.865 51.7917C145.913 51.8877 145.985 51.9597 146.081 52.0077C146.177 52.0497 146.303 52.0707 146.459 52.0707L146.063 53.1957C145.649 53.1957 145.322 53.1207 145.082 52.9707C144.848 52.8147 144.683 52.5957 144.587 52.3137C144.491 52.0257 144.443 51.6807 144.443 51.2787V50.0907H145.802ZM149.968 52.4487V51.6927H152.308C152.284 51.5247 152.239 51.3837 152.173 51.2697C152.113 51.1557 152.026 51.0687 151.912 51.0087C151.804 50.9427 151.669 50.9097 151.507 50.9097C151.321 50.9097 151.159 50.9517 151.021 51.0357C150.889 51.1137 150.784 51.2307 150.706 51.3867C150.628 51.5367 150.589 51.7227 150.589 51.9447L150.571 52.1607C150.571 52.4427 150.613 52.6707 150.697 52.8447C150.787 53.0187 150.904 53.1447 151.048 53.2227C151.198 53.3007 151.36 53.3397 151.534 53.3397C151.702 53.3397 151.849 53.3187 151.975 53.2767C152.107 53.2347 152.221 53.1747 152.317 53.0967C152.413 53.0127 152.494 52.9137 152.56 52.7997L153.775 53.0967C153.637 53.3487 153.472 53.5677 153.28 53.7537C153.088 53.9337 152.851 54.0747 152.569 54.1767C152.293 54.2727 151.954 54.3207 151.552 54.3207C151.054 54.3207 150.628 54.2277 150.274 54.0417C149.926 53.8557 149.659 53.6007 149.473 53.2767C149.293 52.9467 149.203 52.5747 149.203 52.1607C149.203 52.0827 149.206 52.0077 149.212 51.9357C149.218 51.8637 149.227 51.7917 149.239 51.7197C149.299 51.3777 149.422 51.0777 149.608 50.8197C149.8 50.5617 150.055 50.3607 150.373 50.2167C150.697 50.0727 151.084 50.0007 151.534 50.0007C152.02 50.0007 152.428 50.0847 152.758 50.2527C153.088 50.4207 153.337 50.6607 153.505 50.9727C153.679 51.2847 153.766 51.6597 153.766 52.0977C153.766 52.1337 153.766 52.1847 153.766 52.2507C153.766 52.3107 153.76 52.3767 153.748 52.4487H149.968ZM155.046 52.5567V51.5397H158.394V52.5567H155.046ZM157.782 50.0907H159.087V54.2307H157.782V50.0907ZM154.623 50.0907H155.937V54.2307H154.623V50.0907ZM160.583 52.5567V51.5397H163.931V52.5567H160.583ZM163.319 50.0907H164.624V54.2307H163.319V50.0907ZM160.16 50.0907H161.474V54.2307H160.16V50.0907ZM170.134 50.0907H171.502V54.2307H170.134V50.0907ZM165.697 50.0907H167.065V54.2307H165.697V50.0907ZM166.768 52.3677V51.4857H168.055C168.481 51.4857 168.838 51.5907 169.126 51.8007C169.42 52.0047 169.567 52.3287 169.567 52.7727C169.567 53.0667 169.501 53.3247 169.369 53.5467C169.237 53.7687 169.057 53.9397 168.829 54.0597C168.601 54.1737 168.343 54.2307 168.055 54.2307H166.768V53.1777H167.812C167.914 53.1777 167.998 53.1627 168.064 53.1327C168.136 53.1027 168.19 53.0577 168.226 52.9977C168.268 52.9317 168.289 52.8567 168.289 52.7727C168.289 52.6527 168.247 52.5567 168.163 52.4847C168.085 52.4067 167.968 52.3677 167.812 52.3677H166.768ZM176.53 54.2307L175.963 51.3957L176.647 49.7757L177.898 54.2307H176.53ZM174.703 53.0517L176.647 49.7757L176.737 51.6117L174.973 54.5097L174.703 53.0517ZM174.973 54.5097L173.236 51.6117L173.326 49.7757L175.243 53.0517L174.973 54.5097ZM172.075 54.2307L173.326 49.7757L174.01 51.3957L173.443 54.2307H172.075ZM182.67 51.2607L178.494 54.5457L178.539 53.0607L182.715 49.7757L182.67 51.2607ZM179.808 50.0907V53.2767L178.494 54.5457V50.0907H179.808ZM182.715 49.7757V54.2307H181.41V51.0447L182.715 49.7757ZM187.428 52.0707H188.904C189.192 52.0707 189.45 52.1007 189.678 52.1607C189.906 52.2207 190.086 52.3257 190.218 52.4757C190.35 52.6257 190.416 52.8357 190.416 53.1057C190.416 53.4177 190.311 53.6847 190.101 53.9067C189.897 54.1227 189.558 54.2307 189.084 54.2307H187.428V53.3757H188.625C188.817 53.3757 188.949 53.3337 189.021 53.2497C189.099 53.1597 189.138 53.0637 189.138 52.9617C189.138 52.9077 189.129 52.8567 189.111 52.8087C189.093 52.7607 189.063 52.7187 189.021 52.6827C188.985 52.6467 188.934 52.6167 188.868 52.5927C188.802 52.5687 188.721 52.5567 188.625 52.5567H187.428V52.0707ZM187.428 52.2507V51.7197H188.535C188.607 51.7197 188.667 51.7107 188.715 51.6927C188.769 51.6687 188.814 51.6387 188.85 51.6027C188.886 51.5667 188.913 51.5247 188.931 51.4767C188.949 51.4287 188.958 51.3807 188.958 51.3327C188.958 51.2247 188.922 51.1347 188.85 51.0627C188.778 50.9847 188.673 50.9457 188.535 50.9457H187.428V50.0907H188.814C189.072 50.0907 189.306 50.1297 189.516 50.2077C189.732 50.2797 189.906 50.3997 190.038 50.5677C190.17 50.7297 190.236 50.9457 190.236 51.2157C190.236 51.4497 190.17 51.6447 190.038 51.8007C189.906 51.9507 189.732 52.0647 189.516 52.1427C189.306 52.2147 189.072 52.2507 188.814 52.2507H187.428ZM186.645 50.0907H187.95V54.2307H186.645V50.0907ZM190.977 52.1607C190.977 51.7227 191.079 51.3417 191.283 51.0177C191.487 50.6937 191.769 50.4417 192.129 50.2617C192.489 50.0817 192.894 49.9917 193.344 49.9917C193.794 49.9917 194.196 50.0817 194.55 50.2617C194.91 50.4417 195.192 50.6937 195.396 51.0177C195.606 51.3417 195.711 51.7227 195.711 52.1607C195.711 52.5927 195.606 52.9707 195.396 53.2947C195.192 53.6187 194.91 53.8707 194.55 54.0507C194.196 54.2307 193.794 54.3207 193.344 54.3207C192.894 54.3207 192.489 54.2307 192.129 54.0507C191.769 53.8707 191.487 53.6187 191.283 53.2947C191.079 52.9707 190.977 52.5927 190.977 52.1607ZM192.372 52.1607C192.372 52.3767 192.417 52.5627 192.507 52.7187C192.597 52.8687 192.714 52.9857 192.858 53.0697C193.002 53.1537 193.164 53.1957 193.344 53.1957C193.518 53.1957 193.677 53.1537 193.821 53.0697C193.971 52.9857 194.088 52.8687 194.172 52.7187C194.262 52.5627 194.307 52.3767 194.307 52.1607C194.307 51.9447 194.262 51.7587 194.172 51.6027C194.088 51.4467 193.971 51.3267 193.821 51.2427C193.677 51.1587 193.518 51.1167 193.344 51.1167C193.164 51.1167 193.002 51.1587 192.858 51.2427C192.714 51.3267 192.597 51.4467 192.507 51.6027C192.417 51.7587 192.372 51.9447 192.372 52.1607ZM198.446 52.1607V51.7557C198.638 51.7557 198.776 51.7197 198.86 51.6477C198.95 51.5697 198.995 51.4737 198.995 51.3597C198.995 51.2457 198.953 51.1557 198.869 51.0897C198.785 51.0177 198.674 50.9817 198.536 50.9817C198.434 50.9817 198.341 51.0027 198.257 51.0447C198.179 51.0867 198.119 51.1437 198.077 51.2157C198.035 51.2877 198.011 51.3717 198.005 51.4677H196.772C196.772 51.1737 196.844 50.9187 196.988 50.7027C197.138 50.4807 197.342 50.3097 197.6 50.1897C197.864 50.0637 198.173 50.0007 198.527 50.0007C198.857 50.0007 199.151 50.0547 199.409 50.1627C199.667 50.2647 199.868 50.4057 200.012 50.5857C200.162 50.7597 200.237 50.9607 200.237 51.1887C200.237 51.4947 200.09 51.7407 199.796 51.9267C199.508 52.1067 199.058 52.1847 198.446 52.1607ZM198.509 54.3207C197.921 54.3207 197.456 54.1857 197.114 53.9157C196.778 53.6397 196.586 53.2737 196.538 52.8177H197.825C197.873 52.9917 197.954 53.1267 198.068 53.2227C198.182 53.3127 198.326 53.3577 198.5 53.3577C198.632 53.3577 198.746 53.3397 198.842 53.3037C198.938 53.2617 199.013 53.2077 199.067 53.1417C199.121 53.0697 199.148 52.9827 199.148 52.8807C199.148 52.7787 199.121 52.6947 199.067 52.6287C199.019 52.5567 198.941 52.5027 198.833 52.4667C198.731 52.4247 198.602 52.4037 198.446 52.4037V51.8907C199.076 51.8607 199.562 51.9507 199.904 52.1607C200.246 52.3647 200.417 52.6527 200.417 53.0247C200.417 53.2827 200.333 53.5107 200.165 53.7087C200.003 53.9007 199.778 54.0507 199.49 54.1587C199.202 54.2667 198.875 54.3207 198.509 54.3207ZM205.323 54.2307L204.756 51.3957L205.44 49.7757L206.691 54.2307H205.323ZM203.496 53.0517L205.44 49.7757L205.53 51.6117L203.766 54.5097L203.496 53.0517ZM203.766 54.5097L202.029 51.6117L202.119 49.7757L204.036 53.0517L203.766 54.5097ZM200.868 54.2307L202.119 49.7757L202.803 51.3957L202.236 54.2307H200.868ZM207.026 52.1607C207.026 51.7227 207.128 51.3417 207.332 51.0177C207.536 50.6937 207.818 50.4417 208.178 50.2617C208.538 50.0817 208.943 49.9917 209.393 49.9917C209.843 49.9917 210.245 50.0817 210.599 50.2617C210.959 50.4417 211.241 50.6937 211.445 51.0177C211.655 51.3417 211.76 51.7227 211.76 52.1607C211.76 52.5927 211.655 52.9707 211.445 53.2947C211.241 53.6187 210.959 53.8707 210.599 54.0507C210.245 54.2307 209.843 54.3207 209.393 54.3207C208.943 54.3207 208.538 54.2307 208.178 54.0507C207.818 53.8707 207.536 53.6187 207.332 53.2947C207.128 52.9707 207.026 52.5927 207.026 52.1607ZM208.421 52.1607C208.421 52.3767 208.466 52.5627 208.556 52.7187C208.646 52.8687 208.763 52.9857 208.907 53.0697C209.051 53.1537 209.213 53.1957 209.393 53.1957C209.567 53.1957 209.726 53.1537 209.87 53.0697C210.02 52.9857 210.137 52.8687 210.221 52.7187C210.311 52.5627 210.356 52.3767 210.356 52.1607C210.356 51.9447 210.311 51.7587 210.221 51.6027C210.137 51.4467 210.02 51.3267 209.87 51.2427C209.726 51.1587 209.567 51.1167 209.393 51.1167C209.213 51.1167 209.051 51.1587 208.907 51.2427C208.763 51.3267 208.646 51.4467 208.556 51.6027C208.466 51.7587 208.421 51.9447 208.421 52.1607ZM218.089 50.0907H219.655L217.882 51.8367L219.835 54.2307H218.269L216.289 51.8007L218.089 50.0907ZM216.523 50.0907V54.2307H215.227V50.0907H216.523ZM213.67 50.0907L215.47 51.8007L213.49 54.2307H211.915L213.877 51.8367L212.095 50.0907H213.67ZM220.788 52.5567V51.5397H224.136V52.5567H220.788ZM223.524 50.0907H224.829V54.2307H223.524V50.0907ZM220.365 50.0907H221.679V54.2307H220.365V50.0907ZM225.659 52.1607C225.659 51.7227 225.761 51.3417 225.965 51.0177C226.169 50.6937 226.451 50.4417 226.811 50.2617C227.171 50.0817 227.576 49.9917 228.026 49.9917C228.476 49.9917 228.878 50.0817 229.232 50.2617C229.592 50.4417 229.874 50.6937 230.078 51.0177C230.288 51.3417 230.393 51.7227 230.393 52.1607C230.393 52.5927 230.288 52.9707 230.078 53.2947C229.874 53.6187 229.592 53.8707 229.232 54.0507C228.878 54.2307 228.476 54.3207 228.026 54.3207C227.576 54.3207 227.171 54.2307 226.811 54.0507C226.451 53.8707 226.169 53.6187 225.965 53.2947C225.761 52.9707 225.659 52.5927 225.659 52.1607ZM227.054 52.1607C227.054 52.3767 227.099 52.5627 227.189 52.7187C227.279 52.8687 227.396 52.9857 227.54 53.0697C227.684 53.1537 227.846 53.1957 228.026 53.1957C228.2 53.1957 228.359 53.1537 228.503 53.0697C228.653 52.9857 228.77 52.8687 228.854 52.7187C228.944 52.5627 228.989 52.3767 228.989 52.1607C228.989 51.9447 228.944 51.7587 228.854 51.6027C228.77 51.4467 228.653 51.3267 228.503 51.2427C228.359 51.1587 228.2 51.1167 228.026 51.1167C227.846 51.1167 227.684 51.1587 227.54 51.2427C227.396 51.3267 227.279 51.4467 227.189 51.6027C227.099 51.7587 227.054 51.9447 227.054 52.1607ZM232.354 52.1607C232.354 52.3827 232.402 52.5747 232.498 52.7367C232.594 52.8927 232.726 53.0157 232.894 53.1057C233.068 53.1957 233.254 53.2407 233.452 53.2407C233.62 53.2407 233.779 53.2167 233.929 53.1687C234.085 53.1147 234.226 53.0427 234.352 52.9527C234.484 52.8627 234.592 52.7517 234.676 52.6197V53.9427C234.532 54.0567 234.352 54.1497 234.136 54.2217C233.92 54.2877 233.656 54.3207 233.344 54.3207C232.888 54.3207 232.477 54.2307 232.111 54.0507C231.751 53.8707 231.466 53.6187 231.256 53.2947C231.052 52.9707 230.95 52.5927 230.95 52.1607C230.95 51.7227 231.052 51.3447 231.256 51.0267C231.466 50.7027 231.751 50.4507 232.111 50.2707C232.477 50.0907 232.888 50.0007 233.344 50.0007C233.656 50.0007 233.92 50.0367 234.136 50.1087C234.352 50.1747 234.532 50.2587 234.676 50.3607V51.6927C234.592 51.5607 234.481 51.4497 234.343 51.3597C234.211 51.2697 234.067 51.2007 233.911 51.1527C233.755 51.1047 233.602 51.0807 233.452 51.0807C233.254 51.0807 233.068 51.1287 232.894 51.2247C232.726 51.3207 232.594 51.4497 232.498 51.6117C232.402 51.7737 232.354 51.9567 232.354 52.1607ZM235.172 50.0907H238.079V51.2157H235.172V50.0907ZM235.973 50.2707H237.278V54.2307H235.973V50.2707ZM239.897 54.2307H238.493L239.735 52.3497H241.031L239.897 54.2307ZM242.66 54.2307H241.301V50.0907H242.66V54.2307ZM241.769 51.8367V52.7457H240.482C240.2 52.7457 239.927 52.6977 239.663 52.6017C239.405 52.5057 239.195 52.3587 239.033 52.1607C238.877 51.9567 238.799 51.6987 238.799 51.3867C238.799 51.0687 238.877 50.8167 239.033 50.6307C239.195 50.4447 239.405 50.3097 239.663 50.2257C239.927 50.1357 240.2 50.0907 240.482 50.0907H241.769V51.1707H240.671C240.557 51.1707 240.458 51.1827 240.374 51.2067C240.296 51.2247 240.236 51.2577 240.194 51.3057C240.152 51.3537 240.131 51.4197 240.131 51.5037C240.131 51.5817 240.152 51.6477 240.194 51.7017C240.236 51.7497 240.296 51.7857 240.374 51.8097C240.458 51.8277 240.557 51.8367 240.671 51.8367H241.769ZM247.528 54.2307L246.961 51.3957L247.645 49.7757L248.896 54.2307H247.528ZM245.701 53.0517L247.645 49.7757L247.735 51.6117L245.971 54.5097L245.701 53.0517ZM245.971 54.5097L244.234 51.6117L244.324 49.7757L246.241 53.0517L245.971 54.5097ZM243.073 54.2307L244.324 49.7757L245.008 51.3957L244.441 54.2307H243.073ZM253.668 51.2607L249.492 54.5457L249.537 53.0607L253.713 49.7757L253.668 51.2607ZM250.806 50.0907V53.2767L249.492 54.5457V50.0907H250.806ZM253.713 49.7757V54.2307H252.408V51.0447L253.713 49.7757ZM109.448 63.1607V62.7557C109.64 62.7557 109.778 62.7197 109.862 62.6477C109.952 62.5697 109.997 62.4737 109.997 62.3597C109.997 62.2457 109.955 62.1557 109.871 62.0897C109.787 62.0177 109.676 61.9817 109.538 61.9817C109.436 61.9817 109.343 62.0027 109.259 62.0447C109.181 62.0867 109.121 62.1437 109.079 62.2157C109.037 62.2877 109.013 62.3717 109.007 62.4677H107.774C107.774 62.1737 107.846 61.9187 107.99 61.7027C108.14 61.4807 108.344 61.3097 108.602 61.1897C108.866 61.0637 109.175 61.0007 109.529 61.0007C109.859 61.0007 110.153 61.0547 110.411 61.1627C110.669 61.2647 110.87 61.4057 111.014 61.5857C111.164 61.7597 111.239 61.9607 111.239 62.1887C111.239 62.4947 111.092 62.7407 110.798 62.9267C110.51 63.1067 110.06 63.1847 109.448 63.1607ZM109.511 65.3207C108.923 65.3207 108.458 65.1857 108.116 64.9157C107.78 64.6397 107.588 64.2737 107.54 63.8177H108.827C108.875 63.9917 108.956 64.1267 109.07 64.2227C109.184 64.3127 109.328 64.3577 109.502 64.3577C109.634 64.3577 109.748 64.3397 109.844 64.3037C109.94 64.2617 110.015 64.2077 110.069 64.1417C110.123 64.0697 110.15 63.9827 110.15 63.8807C110.15 63.7787 110.123 63.6947 110.069 63.6287C110.021 63.5567 109.943 63.5027 109.835 63.4667C109.733 63.4247 109.604 63.4037 109.448 63.4037V62.8907C110.078 62.8607 110.564 62.9507 110.906 63.1607C111.248 63.3647 111.419 63.6527 111.419 64.0247C111.419 64.2827 111.335 64.5107 111.167 64.7087C111.005 64.9007 110.78 65.0507 110.492 65.1587C110.204 65.2667 109.877 65.3207 109.511 65.3207ZM114.975 62.7287L113.985 64.9607L112.671 64.6817L114.975 60.7757L117.279 64.6817L115.965 64.9607L114.975 62.7287ZM116.487 65.2307H113.508V66.0407H112.185V64.1597H117.765V66.0407H116.487V65.2307ZM118.459 63.1607C118.459 62.7227 118.561 62.3417 118.765 62.0177C118.969 61.6937 119.251 61.4417 119.611 61.2617C119.971 61.0817 120.376 60.9917 120.826 60.9917C121.276 60.9917 121.678 61.0817 122.032 61.2617C122.392 61.4417 122.674 61.6937 122.878 62.0177C123.088 62.3417 123.193 62.7227 123.193 63.1607C123.193 63.5927 123.088 63.9707 122.878 64.2947C122.674 64.6187 122.392 64.8707 122.032 65.0507C121.678 65.2307 121.276 65.3207 120.826 65.3207C120.376 65.3207 119.971 65.2307 119.611 65.0507C119.251 64.8707 118.969 64.6187 118.765 64.2947C118.561 63.9707 118.459 63.5927 118.459 63.1607ZM119.854 63.1607C119.854 63.3767 119.899 63.5627 119.989 63.7187C120.079 63.8687 120.196 63.9857 120.34 64.0697C120.484 64.1537 120.646 64.1957 120.826 64.1957C121 64.1957 121.159 64.1537 121.303 64.0697C121.453 63.9857 121.57 63.8687 121.654 63.7187C121.744 63.5627 121.789 63.3767 121.789 63.1607C121.789 62.9447 121.744 62.7587 121.654 62.6027C121.57 62.4467 121.453 62.3267 121.303 62.2427C121.159 62.1587 121 62.1167 120.826 62.1167C120.646 62.1167 120.484 62.1587 120.34 62.2427C120.196 62.3267 120.079 62.4467 119.989 62.6027C119.899 62.7587 119.854 62.9447 119.854 63.1607ZM125.36 67.2107H124.001V61.0907H125.36V67.2107ZM128.744 63.1607C128.744 63.6407 128.648 64.0457 128.456 64.3757C128.27 64.7057 128.027 64.9547 127.727 65.1227C127.433 65.2907 127.115 65.3747 126.773 65.3747C126.413 65.3747 126.101 65.2847 125.837 65.1047C125.579 64.9187 125.381 64.6607 125.243 64.3307C125.105 63.9947 125.036 63.6047 125.036 63.1607C125.036 62.7107 125.105 62.3207 125.243 61.9907C125.381 61.6607 125.579 61.4057 125.837 61.2257C126.101 61.0397 126.413 60.9467 126.773 60.9467C127.115 60.9467 127.433 61.0307 127.727 61.1987C128.027 61.3667 128.27 61.6157 128.456 61.9457C128.648 62.2697 128.744 62.6747 128.744 63.1607ZM127.313 63.1607C127.313 62.9447 127.268 62.7617 127.178 62.6117C127.088 62.4617 126.968 62.3477 126.818 62.2697C126.668 62.1917 126.503 62.1527 126.323 62.1527C126.167 62.1527 126.014 62.1917 125.864 62.2697C125.72 62.3417 125.6 62.4527 125.504 62.6027C125.408 62.7527 125.36 62.9387 125.36 63.1607C125.36 63.3827 125.408 63.5687 125.504 63.7187C125.6 63.8687 125.72 63.9827 125.864 64.0607C126.014 64.1327 126.167 64.1687 126.323 64.1687C126.503 64.1687 126.668 64.1297 126.818 64.0517C126.968 63.9737 127.088 63.8597 127.178 63.7097C127.268 63.5597 127.313 63.3767 127.313 63.1607ZM129.322 63.1607C129.322 62.7227 129.424 62.3417 129.628 62.0177C129.832 61.6937 130.114 61.4417 130.474 61.2617C130.834 61.0817 131.239 60.9917 131.689 60.9917C132.139 60.9917 132.541 61.0817 132.895 61.2617C133.255 61.4417 133.537 61.6937 133.741 62.0177C133.951 62.3417 134.056 62.7227 134.056 63.1607C134.056 63.5927 133.951 63.9707 133.741 64.2947C133.537 64.6187 133.255 64.8707 132.895 65.0507C132.541 65.2307 132.139 65.3207 131.689 65.3207C131.239 65.3207 130.834 65.2307 130.474 65.0507C130.114 64.8707 129.832 64.6187 129.628 64.2947C129.424 63.9707 129.322 63.5927 129.322 63.1607ZM130.717 63.1607C130.717 63.3767 130.762 63.5627 130.852 63.7187C130.942 63.8687 131.059 63.9857 131.203 64.0697C131.347 64.1537 131.509 64.1957 131.689 64.1957C131.863 64.1957 132.022 64.1537 132.166 64.0697C132.316 63.9857 132.433 63.8687 132.517 63.7187C132.607 63.5627 132.652 63.3767 132.652 63.1607C132.652 62.9447 132.607 62.7587 132.517 62.6027C132.433 62.4467 132.316 62.3267 132.166 62.2427C132.022 62.1587 131.863 62.1167 131.689 62.1167C131.509 62.1167 131.347 62.1587 131.203 62.2427C131.059 62.3267 130.942 62.4467 130.852 62.6027C130.762 62.7587 130.717 62.9447 130.717 63.1607ZM135.801 63.0707H137.277C137.565 63.0707 137.823 63.1007 138.051 63.1607C138.279 63.2207 138.459 63.3257 138.591 63.4757C138.723 63.6257 138.789 63.8357 138.789 64.1057C138.789 64.4177 138.684 64.6847 138.474 64.9067C138.27 65.1227 137.931 65.2307 137.457 65.2307H135.801V64.3757H136.998C137.19 64.3757 137.322 64.3337 137.394 64.2497C137.472 64.1597 137.511 64.0637 137.511 63.9617C137.511 63.9077 137.502 63.8567 137.484 63.8087C137.466 63.7607 137.436 63.7187 137.394 63.6827C137.358 63.6467 137.307 63.6167 137.241 63.5927C137.175 63.5687 137.094 63.5567 136.998 63.5567H135.801V63.0707ZM135.801 63.2507V62.7197H136.908C136.98 62.7197 137.04 62.7107 137.088 62.6927C137.142 62.6687 137.187 62.6387 137.223 62.6027C137.259 62.5667 137.286 62.5247 137.304 62.4767C137.322 62.4287 137.331 62.3807 137.331 62.3327C137.331 62.2247 137.295 62.1347 137.223 62.0627C137.151 61.9847 137.046 61.9457 136.908 61.9457H135.801V61.0907H137.187C137.445 61.0907 137.679 61.1297 137.889 61.2077C138.105 61.2797 138.279 61.3997 138.411 61.5677C138.543 61.7297 138.609 61.9457 138.609 62.2157C138.609 62.4497 138.543 62.6447 138.411 62.8007C138.279 62.9507 138.105 63.0647 137.889 63.1427C137.679 63.2147 137.445 63.2507 137.187 63.2507H135.801ZM135.018 61.0907H136.323V65.2307H135.018V61.0907ZM139.656 61.0907H141.016V65.2307H139.656V61.0907ZM140.719 63.3677V62.4857H142.006C142.432 62.4857 142.789 62.5907 143.077 62.8007C143.371 63.0047 143.518 63.3287 143.518 63.7727C143.518 64.0667 143.452 64.3247 143.32 64.5467C143.188 64.7687 143.008 64.9397 142.78 65.0597C142.552 65.1737 142.294 65.2307 142.006 65.2307H140.719V64.1777H141.763C141.865 64.1777 141.949 64.1627 142.015 64.1327C142.087 64.1027 142.141 64.0577 142.177 63.9977C142.219 63.9317 142.24 63.8567 142.24 63.7727C142.24 63.6527 142.198 63.5567 142.114 63.4847C142.036 63.4067 141.919 63.3677 141.763 63.3677H140.719ZM145.74 65.2307H144.336L145.578 63.3497H146.874L145.74 65.2307ZM148.503 65.2307H147.144V61.0907H148.503V65.2307ZM147.612 62.8367V63.7457H146.325C146.043 63.7457 145.77 63.6977 145.506 63.6017C145.248 63.5057 145.038 63.3587 144.876 63.1607C144.72 62.9567 144.642 62.6987 144.642 62.3867C144.642 62.0687 144.72 61.8167 144.876 61.6307C145.038 61.4447 145.248 61.3097 145.506 61.2257C145.77 61.1357 146.043 61.0907 146.325 61.0907H147.612V62.1707H146.514C146.4 62.1707 146.301 62.1827 146.217 62.2067C146.139 62.2247 146.079 62.2577 146.037 62.3057C145.995 62.3537 145.974 62.4197 145.974 62.5037C145.974 62.5817 145.995 62.6477 146.037 62.7017C146.079 62.7497 146.139 62.7857 146.217 62.8097C146.301 62.8277 146.4 62.8367 146.514 62.8367H147.612ZM154.737 62.8997L156.087 64.6457L155.25 65.2217L153.648 62.9357L155.25 60.6497L156.087 61.2257L154.737 62.8997ZM152.91 62.8997L154.26 64.6457L153.414 65.2217L151.821 62.9357L153.414 60.6497L154.26 61.2257L152.91 62.8997ZM158.094 64.0157L158.202 62.8547H161.325L161.424 64.0157H158.094ZM159.741 61.2437L158.859 63.2777L158.931 63.6107L158.148 65.2307H156.429L159.741 58.5347L163.062 65.2307H161.334L160.578 63.6737L160.632 63.2867L159.741 61.2437ZM165.856 62.1167L165.964 61.0007C166.408 61.0007 166.798 61.0937 167.134 61.2797C167.476 61.4657 167.74 61.7207 167.926 62.0447C168.118 62.3687 168.214 62.7407 168.214 63.1607C168.214 63.5747 168.115 63.9467 167.917 64.2767C167.725 64.6007 167.452 64.8557 167.098 65.0417C166.75 65.2277 166.333 65.3207 165.847 65.3207C165.373 65.3207 164.947 65.2217 164.569 65.0237C164.197 64.8197 163.903 64.5167 163.687 64.1147C163.477 63.7127 163.372 63.2147 163.372 62.6207L164.875 63.1607C164.875 63.3767 164.92 63.5627 165.01 63.7187C165.1 63.8687 165.217 63.9857 165.361 64.0697C165.511 64.1537 165.673 64.1957 165.847 64.1957C166.027 64.1957 166.189 64.1537 166.333 64.0697C166.477 63.9857 166.594 63.8687 166.684 63.7187C166.774 63.5627 166.819 63.3767 166.819 63.1607C166.819 62.9447 166.774 62.7587 166.684 62.6027C166.6 62.4467 166.483 62.3267 166.333 62.2427C166.189 62.1587 166.03 62.1167 165.856 62.1167ZM164.272 63.1607C164.272 62.8247 164.311 62.5247 164.389 62.2607C164.467 61.9907 164.581 61.7627 164.731 61.5767C164.881 61.3907 165.058 61.2497 165.262 61.1537C165.472 61.0517 165.706 61.0007 165.964 61.0007L165.856 62.1167C165.736 62.1167 165.616 62.1407 165.496 62.1887C165.376 62.2307 165.268 62.2967 165.172 62.3867C165.082 62.4767 165.01 62.5877 164.956 62.7197C164.902 62.8457 164.875 62.9927 164.875 63.1607H164.272ZM163.372 62.6207C163.372 62.0567 163.42 61.5617 163.516 61.1357C163.618 60.7037 163.798 60.3347 164.056 60.0287C164.314 59.7167 164.677 59.4647 165.145 59.2727C165.553 59.1047 165.865 58.9397 166.081 58.7777C166.303 58.6157 166.435 58.4267 166.477 58.2107H167.782C167.752 58.4747 167.656 58.7267 167.494 58.9667C167.332 59.2067 167.119 59.4227 166.855 59.6147C166.597 59.8007 166.303 59.9567 165.973 60.0827C165.607 60.2207 165.319 60.3947 165.109 60.6047C164.905 60.8147 164.761 61.0547 164.677 61.3247C164.599 61.5887 164.56 61.8707 164.56 62.1707L164.785 63.1517L163.372 62.6207ZM173.257 62.2607L169.081 65.5457L169.126 64.0607L173.302 60.7757L173.257 62.2607ZM170.395 61.0907V64.2767L169.081 65.5457V61.0907H170.395ZM173.302 60.7757V65.2307H171.997V62.0447L173.302 60.7757ZM178.745 61.0907V65.2307H177.44V62.3237H175.91V63.7907C175.91 64.1147 175.85 64.3847 175.73 64.6007C175.61 64.8107 175.406 64.9697 175.118 65.0777C174.836 65.1797 174.446 65.2307 173.948 65.2307V64.0157C174.128 64.0157 174.281 63.9827 174.407 63.9167C174.539 63.8447 174.605 63.6917 174.605 63.4577V61.0907H178.745ZM184.191 62.2607L180.015 65.5457L180.06 64.0607L184.236 60.7757L184.191 62.2607ZM181.329 61.0907V64.2767L180.015 65.5457V61.0907H181.329ZM184.236 60.7757V65.2307H182.931V62.0447L184.236 60.7757ZM189.292 65.2307L188.725 62.3957L189.409 60.7757L190.66 65.2307H189.292ZM187.465 64.0517L189.409 60.7757L189.499 62.6117L187.735 65.5097L187.465 64.0517ZM187.735 65.5097L185.998 62.6117L186.088 60.7757L188.005 64.0517L187.735 65.5097ZM184.837 65.2307L186.088 60.7757L186.772 62.3957L186.205 65.2307H184.837ZM195.594 61.0907V65.2307H194.289V62.3237H192.759V63.7907C192.759 64.1147 192.699 64.3847 192.579 64.6007C192.459 64.8107 192.255 64.9697 191.967 65.0777C191.685 65.1797 191.295 65.2307 190.797 65.2307V64.0157C190.977 64.0157 191.13 63.9827 191.256 63.9167C191.388 63.8447 191.454 63.6917 191.454 63.4577V61.0907H195.594ZM201.039 62.2607L196.863 65.5457L196.908 64.0607L201.084 60.7757L201.039 62.2607ZM198.177 61.0907V64.2767L196.863 65.5457V61.0907H198.177ZM201.084 60.7757V65.2307H199.779V62.0447L201.084 60.7757ZM202.163 61.0907H203.468V65.2307H202.163V61.0907ZM204.971 61.0907H206.6L204.827 62.8007L206.78 65.2307H205.178L203.198 62.8007L204.971 61.0907ZM208.377 63.1607C208.377 63.3827 208.425 63.5747 208.521 63.7367C208.617 63.8927 208.749 64.0157 208.917 64.1057C209.091 64.1957 209.277 64.2407 209.475 64.2407C209.643 64.2407 209.802 64.2167 209.952 64.1687C210.108 64.1147 210.249 64.0427 210.375 63.9527C210.507 63.8627 210.615 63.7517 210.699 63.6197V64.9427C210.555 65.0567 210.375 65.1497 210.159 65.2217C209.943 65.2877 209.679 65.3207 209.367 65.3207C208.911 65.3207 208.5 65.2307 208.134 65.0507C207.774 64.8707 207.489 64.6187 207.279 64.2947C207.075 63.9707 206.973 63.5927 206.973 63.1607C206.973 62.7227 207.075 62.3447 207.279 62.0267C207.489 61.7027 207.774 61.4507 208.134 61.2707C208.5 61.0907 208.911 61.0007 209.367 61.0007C209.679 61.0007 209.943 61.0367 210.159 61.1087C210.375 61.1747 210.555 61.2587 210.699 61.3607V62.6927C210.615 62.5607 210.504 62.4497 210.366 62.3597C210.234 62.2697 210.09 62.2007 209.934 62.1527C209.778 62.1047 209.625 62.0807 209.475 62.0807C209.277 62.0807 209.091 62.1287 208.917 62.2247C208.749 62.3207 208.617 62.4497 208.521 62.6117C208.425 62.7737 208.377 62.9567 208.377 63.1607ZM212.851 62.9717L211.501 61.2257L212.338 60.6497L213.94 62.9357L212.338 65.2217L211.501 64.6457L212.851 62.9717ZM214.678 62.9717L213.328 61.2257L214.174 60.6497L215.776 62.9357L214.174 65.2217L213.328 64.6457L214.678 62.9717ZM108.917 79.0807C108.917 79.4527 108.989 79.7827 109.133 80.0707C109.283 80.3527 109.49 80.5747 109.754 80.7367C110.024 80.8987 110.339 80.9797 110.699 80.9797C111.053 80.9797 111.362 80.8987 111.626 80.7367C111.896 80.5747 112.103 80.3527 112.247 80.0707C112.397 79.7827 112.472 79.4527 112.472 79.0807C112.472 78.7087 112.4 78.3817 112.256 78.0997C112.112 77.8117 111.908 77.5867 111.644 77.4247C111.38 77.2627 111.065 77.1817 110.699 77.1817C110.339 77.1817 110.024 77.2627 109.754 77.4247C109.49 77.5867 109.283 77.8117 109.133 78.0997C108.989 78.3817 108.917 78.7087 108.917 79.0807ZM107.306 79.0807C107.306 78.5947 107.39 78.1507 107.558 77.7487C107.732 77.3467 107.972 76.9987 108.278 76.7047C108.584 76.4107 108.944 76.1857 109.358 76.0297C109.772 75.8677 110.219 75.7867 110.699 75.7867C111.185 75.7867 111.632 75.8677 112.04 76.0297C112.454 76.1857 112.814 76.4107 113.12 76.7047C113.426 76.9987 113.663 77.3467 113.831 77.7487C113.999 78.1507 114.083 78.5947 114.083 79.0807C114.083 79.5667 113.999 80.0137 113.831 80.4217C113.669 80.8297 113.435 81.1837 113.129 81.4837C112.829 81.7837 112.472 82.0177 112.058 82.1857C111.644 82.3477 111.191 82.4287 110.699 82.4287C110.201 82.4287 109.745 82.3477 109.331 82.1857C108.917 82.0177 108.557 81.7837 108.251 81.4837C107.951 81.1837 107.717 80.8297 107.549 80.4217C107.387 80.0137 107.306 79.5667 107.306 79.0807ZM116.273 84.2107H114.914V78.0907H116.273V84.2107ZM119.657 80.1607C119.657 80.6407 119.561 81.0457 119.369 81.3757C119.183 81.7057 118.94 81.9547 118.64 82.1227C118.346 82.2907 118.028 82.3747 117.686 82.3747C117.326 82.3747 117.014 82.2847 116.75 82.1047C116.492 81.9187 116.294 81.6607 116.156 81.3307C116.018 80.9947 115.949 80.6047 115.949 80.1607C115.949 79.7107 116.018 79.3207 116.156 78.9907C116.294 78.6607 116.492 78.4057 116.75 78.2257C117.014 78.0397 117.326 77.9467 117.686 77.9467C118.028 77.9467 118.346 78.0307 118.64 78.1987C118.94 78.3667 119.183 78.6157 119.369 78.9457C119.561 79.2697 119.657 79.6747 119.657 80.1607ZM118.226 80.1607C118.226 79.9447 118.181 79.7617 118.091 79.6117C118.001 79.4617 117.881 79.3477 117.731 79.2697C117.581 79.1917 117.416 79.1527 117.236 79.1527C117.08 79.1527 116.927 79.1917 116.777 79.2697C116.633 79.3417 116.513 79.4527 116.417 79.6027C116.321 79.7527 116.273 79.9387 116.273 80.1607C116.273 80.3827 116.321 80.5687 116.417 80.7187C116.513 80.8687 116.633 80.9827 116.777 81.0607C116.927 81.1327 117.08 81.1687 117.236 81.1687C117.416 81.1687 117.581 81.1297 117.731 81.0517C117.881 80.9737 118.001 80.8597 118.091 80.7097C118.181 80.5597 118.226 80.3767 118.226 80.1607ZM120.999 80.4487V79.6927H123.339C123.315 79.5247 123.27 79.3837 123.204 79.2697C123.144 79.1557 123.057 79.0687 122.943 79.0087C122.835 78.9427 122.7 78.9097 122.538 78.9097C122.352 78.9097 122.19 78.9517 122.052 79.0357C121.92 79.1137 121.815 79.2307 121.737 79.3867C121.659 79.5367 121.62 79.7227 121.62 79.9447L121.602 80.1607C121.602 80.4427 121.644 80.6707 121.728 80.8447C121.818 81.0187 121.935 81.1447 122.079 81.2227C122.229 81.3007 122.391 81.3397 122.565 81.3397C122.733 81.3397 122.88 81.3187 123.006 81.2767C123.138 81.2347 123.252 81.1747 123.348 81.0967C123.444 81.0127 123.525 80.9137 123.591 80.7997L124.806 81.0967C124.668 81.3487 124.503 81.5677 124.311 81.7537C124.119 81.9337 123.882 82.0747 123.6 82.1767C123.324 82.2727 122.985 82.3207 122.583 82.3207C122.085 82.3207 121.659 82.2277 121.305 82.0417C120.957 81.8557 120.69 81.6007 120.504 81.2767C120.324 80.9467 120.234 80.5747 120.234 80.1607C120.234 80.0827 120.237 80.0077 120.243 79.9357C120.249 79.8637 120.258 79.7917 120.27 79.7197C120.33 79.3777 120.453 79.0777 120.639 78.8197C120.831 78.5617 121.086 78.3607 121.404 78.2167C121.728 78.0727 122.115 78.0007 122.565 78.0007C123.051 78.0007 123.459 78.0847 123.789 78.2527C124.119 78.4207 124.368 78.6607 124.536 78.9727C124.71 79.2847 124.797 79.6597 124.797 80.0977C124.797 80.1337 124.797 80.1847 124.797 80.2507C124.797 80.3107 124.791 80.3767 124.779 80.4487H120.999ZM126.077 80.5567V79.5397H129.425V80.5567H126.077ZM128.813 78.0907H130.118V82.2307H128.813V78.0907ZM125.654 78.0907H126.968V82.2307H125.654V78.0907ZM133.459 79.1167L133.567 78.0007C134.011 78.0007 134.401 78.0937 134.737 78.2797C135.079 78.4657 135.343 78.7207 135.529 79.0447C135.721 79.3687 135.817 79.7407 135.817 80.1607C135.817 80.5747 135.718 80.9467 135.52 81.2767C135.328 81.6007 135.055 81.8557 134.701 82.0417C134.353 82.2277 133.936 82.3207 133.45 82.3207C132.976 82.3207 132.55 82.2217 132.172 82.0237C131.8 81.8197 131.506 81.5167 131.29 81.1147C131.08 80.7127 130.975 80.2147 130.975 79.6207L132.478 80.1607C132.478 80.3767 132.523 80.5627 132.613 80.7187C132.703 80.8687 132.82 80.9857 132.964 81.0697C133.114 81.1537 133.276 81.1957 133.45 81.1957C133.63 81.1957 133.792 81.1537 133.936 81.0697C134.08 80.9857 134.197 80.8687 134.287 80.7187C134.377 80.5627 134.422 80.3767 134.422 80.1607C134.422 79.9447 134.377 79.7587 134.287 79.6027C134.203 79.4467 134.086 79.3267 133.936 79.2427C133.792 79.1587 133.633 79.1167 133.459 79.1167ZM131.875 80.1607C131.875 79.8247 131.914 79.5247 131.992 79.2607C132.07 78.9907 132.184 78.7627 132.334 78.5767C132.484 78.3907 132.661 78.2497 132.865 78.1537C133.075 78.0517 133.309 78.0007 133.567 78.0007L133.459 79.1167C133.339 79.1167 133.219 79.1407 133.099 79.1887C132.979 79.2307 132.871 79.2967 132.775 79.3867C132.685 79.4767 132.613 79.5877 132.559 79.7197C132.505 79.8457 132.478 79.9927 132.478 80.1607H131.875ZM130.975 79.6207C130.975 79.0567 131.023 78.5617 131.119 78.1357C131.221 77.7037 131.401 77.3347 131.659 77.0287C131.917 76.7167 132.28 76.4647 132.748 76.2727C133.156 76.1047 133.468 75.9397 133.684 75.7777C133.906 75.6157 134.038 75.4267 134.08 75.2107H135.385C135.355 75.4747 135.259 75.7267 135.097 75.9667C134.935 76.2067 134.722 76.4227 134.458 76.6147C134.2 76.8007 133.906 76.9567 133.576 77.0827C133.21 77.2207 132.922 77.3947 132.712 77.6047C132.508 77.8147 132.364 78.0547 132.28 78.3247C132.202 78.5887 132.163 78.8707 132.163 79.1707L132.388 80.1517L130.975 79.6207ZM140.906 78.0907L138.206 84.2107H136.838L137.846 81.8977L136.055 78.0907H137.549L138.89 81.4117L138.188 81.4027L139.511 78.0907H140.906ZM142.71 84.2107H141.351V78.0907H142.71V84.2107ZM146.094 80.1607C146.094 80.6407 145.998 81.0457 145.806 81.3757C145.62 81.7057 145.377 81.9547 145.077 82.1227C144.783 82.2907 144.465 82.3747 144.123 82.3747C143.763 82.3747 143.451 82.2847 143.187 82.1047C142.929 81.9187 142.731 81.6607 142.593 81.3307C142.455 80.9947 142.386 80.6047 142.386 80.1607C142.386 79.7107 142.455 79.3207 142.593 78.9907C142.731 78.6607 142.929 78.4057 143.187 78.2257C143.451 78.0397 143.763 77.9467 144.123 77.9467C144.465 77.9467 144.783 78.0307 145.077 78.1987C145.377 78.3667 145.62 78.6157 145.806 78.9457C145.998 79.2697 146.094 79.6747 146.094 80.1607ZM144.663 80.1607C144.663 79.9447 144.618 79.7617 144.528 79.6117C144.438 79.4617 144.318 79.3477 144.168 79.2697C144.018 79.1917 143.853 79.1527 143.673 79.1527C143.517 79.1527 143.364 79.1917 143.214 79.2697C143.07 79.3417 142.95 79.4527 142.854 79.6027C142.758 79.7527 142.71 79.9387 142.71 80.1607C142.71 80.3827 142.758 80.5687 142.854 80.7187C142.95 80.8687 143.07 80.9827 143.214 81.0607C143.364 81.1327 143.517 81.1687 143.673 81.1687C143.853 81.1687 144.018 81.1297 144.168 81.0517C144.318 80.9737 144.438 80.8597 144.528 80.7097C144.618 80.5597 144.663 80.3767 144.663 80.1607ZM146.933 78.0907H149.588V79.2157H148.274V82.2307H146.933V78.0907ZM151.152 80.1607C151.152 80.3827 151.2 80.5747 151.296 80.7367C151.392 80.8927 151.524 81.0157 151.692 81.1057C151.866 81.1957 152.052 81.2407 152.25 81.2407C152.418 81.2407 152.577 81.2167 152.727 81.1687C152.883 81.1147 153.024 81.0427 153.15 80.9527C153.282 80.8627 153.39 80.7517 153.474 80.6197V81.9427C153.33 82.0567 153.15 82.1497 152.934 82.2217C152.718 82.2877 152.454 82.3207 152.142 82.3207C151.686 82.3207 151.275 82.2307 150.909 82.0507C150.549 81.8707 150.264 81.6187 150.054 81.2947C149.85 80.9707 149.748 80.5927 149.748 80.1607C149.748 79.7227 149.85 79.3447 150.054 79.0267C150.264 78.7027 150.549 78.4507 150.909 78.2707C151.275 78.0907 151.686 78.0007 152.142 78.0007C152.454 78.0007 152.718 78.0367 152.934 78.1087C153.15 78.1747 153.33 78.2587 153.474 78.3607V79.6927C153.39 79.5607 153.279 79.4497 153.141 79.3597C153.009 79.2697 152.865 79.2007 152.709 79.1527C152.553 79.1047 152.4 79.0807 152.25 79.0807C152.052 79.0807 151.866 79.1287 151.692 79.2247C151.524 79.3207 151.392 79.4497 151.296 79.6117C151.2 79.7737 151.152 79.9567 151.152 80.1607ZM154.447 78.0907H155.752V82.2307H154.447V78.0907ZM157.255 78.0907H158.884L157.111 79.8007L159.064 82.2307H157.462L155.482 79.8007L157.255 78.0907ZM160.703 80.9977C160.703 81.0937 160.73 81.1747 160.784 81.2407C160.838 81.3007 160.91 81.3487 161 81.3847C161.096 81.4147 161.195 81.4297 161.297 81.4297C161.465 81.4297 161.618 81.4027 161.756 81.3487C161.9 81.2947 162.014 81.2047 162.098 81.0787C162.182 80.9527 162.224 80.7787 162.224 80.5567L162.368 81.0607C162.368 81.3247 162.299 81.5527 162.161 81.7447C162.029 81.9307 161.846 82.0747 161.612 82.1767C161.384 82.2727 161.126 82.3207 160.838 82.3207C160.55 82.3207 160.292 82.2727 160.064 82.1767C159.836 82.0747 159.656 81.9307 159.524 81.7447C159.398 81.5527 159.335 81.3217 159.335 81.0517C159.335 80.7757 159.407 80.5387 159.551 80.3407C159.701 80.1427 159.911 79.9897 160.181 79.8817C160.451 79.7737 160.766 79.7197 161.126 79.7197C161.336 79.7197 161.534 79.7437 161.72 79.7917C161.912 79.8337 162.077 79.8907 162.215 79.9627C162.359 80.0287 162.461 80.0947 162.521 80.1607V80.7997C162.365 80.6857 162.203 80.6017 162.035 80.5477C161.873 80.4877 161.675 80.4577 161.441 80.4577C161.285 80.4577 161.15 80.4817 161.036 80.5297C160.928 80.5717 160.844 80.6317 160.784 80.7097C160.73 80.7877 160.703 80.8837 160.703 80.9977ZM160.172 79.3687L159.713 78.4507C159.947 78.3367 160.226 78.2287 160.55 78.1267C160.88 78.0247 161.231 77.9737 161.603 77.9737C161.975 77.9737 162.305 78.0277 162.593 78.1357C162.887 78.2377 163.115 78.3877 163.277 78.5857C163.445 78.7837 163.529 79.0267 163.529 79.3147V82.2307H162.224V79.5847C162.224 79.4107 162.158 79.2727 162.026 79.1707C161.9 79.0627 161.723 79.0087 161.495 79.0087C161.297 79.0087 161.108 79.0297 160.928 79.0717C160.754 79.1137 160.601 79.1647 160.469 79.2247C160.337 79.2787 160.238 79.3267 160.172 79.3687ZM165.788 82.2307H164.384L165.626 80.3497H166.922L165.788 82.2307ZM168.551 82.2307H167.192V78.0907H168.551V82.2307ZM167.66 79.8367V80.7457H166.373C166.091 80.7457 165.818 80.6977 165.554 80.6017C165.296 80.5057 165.086 80.3587 164.924 80.1607C164.768 79.9567 164.69 79.6987 164.69 79.3867C164.69 79.0687 164.768 78.8167 164.924 78.6307C165.086 78.4447 165.296 78.3097 165.554 78.2257C165.818 78.1357 166.091 78.0907 166.373 78.0907H167.66V79.1707H166.562C166.448 79.1707 166.349 79.1827 166.265 79.2067C166.187 79.2247 166.127 79.2577 166.085 79.3057C166.043 79.3537 166.022 79.4197 166.022 79.5037C166.022 79.5817 166.043 79.6477 166.085 79.7017C166.127 79.7497 166.187 79.7857 166.265 79.8097C166.349 79.8277 166.448 79.8367 166.562 79.8367H167.66ZM171.905 80.1607C171.905 79.7227 172.007 79.3417 172.211 79.0177C172.415 78.6937 172.697 78.4417 173.057 78.2617C173.417 78.0817 173.822 77.9917 174.272 77.9917C174.722 77.9917 175.124 78.0817 175.478 78.2617C175.838 78.4417 176.12 78.6937 176.324 79.0177C176.534 79.3417 176.639 79.7227 176.639 80.1607C176.639 80.5927 176.534 80.9707 176.324 81.2947C176.12 81.6187 175.838 81.8707 175.478 82.0507C175.124 82.2307 174.722 82.3207 174.272 82.3207C173.822 82.3207 173.417 82.2307 173.057 82.0507C172.697 81.8707 172.415 81.6187 172.211 81.2947C172.007 80.9707 171.905 80.5927 171.905 80.1607ZM173.3 80.1607C173.3 80.3767 173.345 80.5627 173.435 80.7187C173.525 80.8687 173.642 80.9857 173.786 81.0697C173.93 81.1537 174.092 81.1957 174.272 81.1957C174.446 81.1957 174.605 81.1537 174.749 81.0697C174.899 80.9857 175.016 80.8687 175.1 80.7187C175.19 80.5627 175.235 80.3767 175.235 80.1607C175.235 79.9447 175.19 79.7587 175.1 79.6027C175.016 79.4467 174.899 79.3267 174.749 79.2427C174.605 79.1587 174.446 79.1167 174.272 79.1167C174.092 79.1167 173.93 79.1587 173.786 79.2427C173.642 79.3267 173.525 79.4467 173.435 79.6027C173.345 79.7587 173.3 79.9447 173.3 80.1607ZM179.725 79.1167L179.833 78.0007C180.277 78.0007 180.667 78.0937 181.003 78.2797C181.345 78.4657 181.609 78.7207 181.795 79.0447C181.987 79.3687 182.083 79.7407 182.083 80.1607C182.083 80.5747 181.984 80.9467 181.786 81.2767C181.594 81.6007 181.321 81.8557 180.967 82.0417C180.619 82.2277 180.202 82.3207 179.716 82.3207C179.242 82.3207 178.816 82.2217 178.438 82.0237C178.066 81.8197 177.772 81.5167 177.556 81.1147C177.346 80.7127 177.241 80.2147 177.241 79.6207L178.744 80.1607C178.744 80.3767 178.789 80.5627 178.879 80.7187C178.969 80.8687 179.086 80.9857 179.23 81.0697C179.38 81.1537 179.542 81.1957 179.716 81.1957C179.896 81.1957 180.058 81.1537 180.202 81.0697C180.346 80.9857 180.463 80.8687 180.553 80.7187C180.643 80.5627 180.688 80.3767 180.688 80.1607C180.688 79.9447 180.643 79.7587 180.553 79.6027C180.469 79.4467 180.352 79.3267 180.202 79.2427C180.058 79.1587 179.899 79.1167 179.725 79.1167ZM178.141 80.1607C178.141 79.8247 178.18 79.5247 178.258 79.2607C178.336 78.9907 178.45 78.7627 178.6 78.5767C178.75 78.3907 178.927 78.2497 179.131 78.1537C179.341 78.0517 179.575 78.0007 179.833 78.0007L179.725 79.1167C179.605 79.1167 179.485 79.1407 179.365 79.1887C179.245 79.2307 179.137 79.2967 179.041 79.3867C178.951 79.4767 178.879 79.5877 178.825 79.7197C178.771 79.8457 178.744 79.9927 178.744 80.1607H178.141ZM177.241 79.6207C177.241 79.0567 177.289 78.5617 177.385 78.1357C177.487 77.7037 177.667 77.3347 177.925 77.0287C178.183 76.7167 178.546 76.4647 179.014 76.2727C179.422 76.1047 179.734 75.9397 179.95 75.7777C180.172 75.6157 180.304 75.4267 180.346 75.2107H181.651C181.621 75.4747 181.525 75.7267 181.363 75.9667C181.201 76.2067 180.988 76.4227 180.724 76.6147C180.466 76.8007 180.172 76.9567 179.842 77.0827C179.476 77.2207 179.188 77.3947 178.978 77.6047C178.774 77.8147 178.63 78.0547 178.546 78.3247C178.468 78.5887 178.429 78.8707 178.429 79.1707L178.654 80.1517L177.241 79.6207ZM187.288 78.0907V82.2307H185.983V79.3237H184.453V80.7907C184.453 81.1147 184.393 81.3847 184.273 81.6007C184.153 81.8107 183.949 81.9697 183.661 82.0777C183.379 82.1797 182.989 82.2307 182.491 82.2307V81.0157C182.671 81.0157 182.824 80.9827 182.95 80.9167C183.082 80.8447 183.148 80.6917 183.148 80.4577V78.0907H187.288ZM189.593 80.9977C189.593 81.0937 189.62 81.1747 189.674 81.2407C189.728 81.3007 189.8 81.3487 189.89 81.3847C189.986 81.4147 190.085 81.4297 190.187 81.4297C190.355 81.4297 190.508 81.4027 190.646 81.3487C190.79 81.2947 190.904 81.2047 190.988 81.0787C191.072 80.9527 191.114 80.7787 191.114 80.5567L191.258 81.0607C191.258 81.3247 191.189 81.5527 191.051 81.7447C190.919 81.9307 190.736 82.0747 190.502 82.1767C190.274 82.2727 190.016 82.3207 189.728 82.3207C189.44 82.3207 189.182 82.2727 188.954 82.1767C188.726 82.0747 188.546 81.9307 188.414 81.7447C188.288 81.5527 188.225 81.3217 188.225 81.0517C188.225 80.7757 188.297 80.5387 188.441 80.3407C188.591 80.1427 188.801 79.9897 189.071 79.8817C189.341 79.7737 189.656 79.7197 190.016 79.7197C190.226 79.7197 190.424 79.7437 190.61 79.7917C190.802 79.8337 190.967 79.8907 191.105 79.9627C191.249 80.0287 191.351 80.0947 191.411 80.1607V80.7997C191.255 80.6857 191.093 80.6017 190.925 80.5477C190.763 80.4877 190.565 80.4577 190.331 80.4577C190.175 80.4577 190.04 80.4817 189.926 80.5297C189.818 80.5717 189.734 80.6317 189.674 80.7097C189.62 80.7877 189.593 80.8837 189.593 80.9977ZM189.062 79.3687L188.603 78.4507C188.837 78.3367 189.116 78.2287 189.44 78.1267C189.77 78.0247 190.121 77.9737 190.493 77.9737C190.865 77.9737 191.195 78.0277 191.483 78.1357C191.777 78.2377 192.005 78.3877 192.167 78.5857C192.335 78.7837 192.419 79.0267 192.419 79.3147V82.2307H191.114V79.5847C191.114 79.4107 191.048 79.2727 190.916 79.1707C190.79 79.0627 190.613 79.0087 190.385 79.0087C190.187 79.0087 189.998 79.0297 189.818 79.0717C189.644 79.1137 189.491 79.1647 189.359 79.2247C189.227 79.2787 189.128 79.3267 189.062 79.3687ZM194.578 80.1607C194.578 80.3827 194.626 80.5747 194.722 80.7367C194.818 80.8927 194.95 81.0157 195.118 81.1057C195.292 81.1957 195.478 81.2407 195.676 81.2407C195.844 81.2407 196.003 81.2167 196.153 81.1687C196.309 81.1147 196.45 81.0427 196.576 80.9527C196.708 80.8627 196.816 80.7517 196.9 80.6197V81.9427C196.756 82.0567 196.576 82.1497 196.36 82.2217C196.144 82.2877 195.88 82.3207 195.568 82.3207C195.112 82.3207 194.701 82.2307 194.335 82.0507C193.975 81.8707 193.69 81.6187 193.48 81.2947C193.276 80.9707 193.174 80.5927 193.174 80.1607C193.174 79.7227 193.276 79.3447 193.48 79.0267C193.69 78.7027 193.975 78.4507 194.335 78.2707C194.701 78.0907 195.112 78.0007 195.568 78.0007C195.88 78.0007 196.144 78.0367 196.36 78.1087C196.576 78.1747 196.756 78.2587 196.9 78.3607V79.6927C196.816 79.5607 196.705 79.4497 196.567 79.3597C196.435 79.2697 196.291 79.2007 196.135 79.1527C195.979 79.1047 195.826 79.0807 195.676 79.0807C195.478 79.0807 195.292 79.1287 195.118 79.2247C194.95 79.3207 194.818 79.4497 194.722 79.6117C194.626 79.7737 194.578 79.9567 194.578 80.1607ZM197.397 78.0907H200.304V79.2157H197.397V78.0907ZM198.198 78.2707H199.503V82.2307H198.198V78.2707ZM200.943 78.0907H202.302V82.2307H200.943V78.0907ZM202.005 80.3677V79.4857H203.292C203.718 79.4857 204.075 79.5907 204.363 79.8007C204.657 80.0047 204.804 80.3287 204.804 80.7727C204.804 81.0667 204.738 81.3247 204.606 81.5467C204.474 81.7687 204.294 81.9397 204.066 82.0597C203.838 82.1737 203.58 82.2307 203.292 82.2307H202.005V81.1777H203.049C203.151 81.1777 203.235 81.1627 203.301 81.1327C203.373 81.1027 203.427 81.0577 203.463 80.9977C203.505 80.9317 203.526 80.8567 203.526 80.7727C203.526 80.6527 203.484 80.5567 203.4 80.4847C203.322 80.4067 203.205 80.3677 203.049 80.3677H202.005Z" fill="#0540F2"/>
</svg>
