<svg width="51" height="45" viewBox="0 0 51 45" fill="none" xmlns="http://www.w3.org/2000/svg">
<path d="M47.3062 0.00331071C46.7581 0.0273563 46.2246 0.179899 45.7435 0.372559C45.2673 0.563931 42.5257 1.73408 38.4772 3.46502C34.4287 5.19595 29.1659 7.45 23.949 9.6851C13.5152 14.1553 3.26229 18.5537 3.26229 18.5537L3.33702 18.5251C3.33702 18.5251 2.7182 18.7319 2.0908 19.1691C1.7771 19.3876 1.43962 19.6698 1.16328 20.0812C0.886953 20.4926 0.684937 21.0756 0.761067 21.6923C1.02847 23.8582 3.27328 24.4726 3.27328 24.4726L3.28207 24.477L13.3001 27.9058C13.5556 28.7578 16.3387 38.0469 16.9509 40.014C17.289 41.1016 17.6054 41.729 17.9355 42.157C18.1007 42.3712 18.2738 42.5369 18.4652 42.6581C18.5413 42.7063 18.6213 42.7424 18.7004 42.7746H18.7048C18.7145 42.7789 18.7237 42.7793 18.7334 42.7834L18.707 42.7768C18.7254 42.7842 18.7435 42.7967 18.7619 42.8032C18.7977 42.8157 18.8195 42.8153 18.8652 42.8252C20.0126 43.2258 20.962 42.4823 20.962 42.4823L21.0016 42.4515L27.1558 36.7436L37.143 44.5307L37.2683 44.5879C39.0165 45.3641 40.5974 44.931 41.4729 44.2186C42.3484 43.5062 42.6928 42.5878 42.6928 42.5878L42.7301 42.4911L50.069 4.24088C50.2567 3.38514 50.2834 2.64544 50.1063 1.97703C49.9292 1.30862 49.4989 0.727582 48.959 0.405528C48.4191 0.0834744 47.8543 -0.0207349 47.3062 0.00331071ZM47.3655 2.29133C47.5881 2.28103 47.7531 2.30647 47.8051 2.33749C47.8571 2.36851 47.8805 2.36443 47.9304 2.55289C47.9803 2.74134 48.0074 3.13829 47.871 3.75954L47.8666 3.77272L40.5696 41.8009C40.5523 41.8392 40.4003 42.191 40.0531 42.4735C39.6989 42.7617 39.305 42.9866 38.2596 42.5482L27.3382 34.0313L27.0305 33.7896L27.0239 33.7962L23.7578 31.3455L42.1125 9.75104C42.2536 9.58554 42.3436 9.38272 42.3718 9.16712C42.4001 8.95151 42.3652 8.73235 42.2715 8.53613C42.1778 8.3399 42.0293 8.17502 41.8439 8.06142C41.6585 7.94782 41.4441 7.89037 41.2268 7.896C41.0144 7.90152 40.8078 7.96705 40.6311 8.08502L14.0716 25.7914L4.03815 22.356C4.03815 22.356 3.04183 21.8016 2.99414 21.4153C2.9915 21.3939 2.97973 21.4133 3.03151 21.3362C3.08328 21.2591 3.21342 21.129 3.37658 21.0153C3.7029 20.788 4.07551 20.6505 4.07551 20.6505L4.11288 20.6373L4.15024 20.6219C4.15024 20.6219 14.4037 16.2233 24.837 11.7533C30.0536 9.51834 35.3154 7.26595 39.3629 5.53545C43.4094 3.80539 46.3333 2.5601 46.5809 2.46057C46.8627 2.34771 47.1429 2.30164 47.3655 2.29133ZM35.1935 14.415L21.2741 30.7916L21.2676 30.7982C21.2458 30.8244 21.2253 30.8515 21.206 30.8795C21.1839 30.91 21.1634 30.9415 21.1445 30.974C21.0663 31.1068 21.0161 31.2541 20.9972 31.407C20.9972 31.41 20.9972 31.4129 20.9972 31.4158L19.1839 39.5701C19.1538 39.482 19.1327 39.4497 19.1004 39.3459V39.3437C18.5245 37.4931 15.8987 28.7327 15.5354 27.5211L35.1935 14.415ZM22.8457 33.4753L25.3469 35.3523L21.672 38.759L22.8457 33.4753Z" fill="#0540F2"/>
</svg>
