<svg width="58" height="33" viewBox="0 0 58 33" fill="none" xmlns="http://www.w3.org/2000/svg">
<path d="M55.1041 33L47.4109 32.9794C47.4109 32.9794 47.2459 33 46.9778 33C46.3591 33 45.0803 32.835 43.5747 31.8037C40.8728 29.9269 38.2947 25.2656 36.2528 25.2656C36.1084 25.2656 35.9847 25.2863 35.8609 25.3275C34.0872 25.8844 33.5509 27.6581 33.5509 29.8237C33.5509 30.5869 33.0147 30.9375 31.5709 30.9375H27.5903C23.1353 30.9375 18.8247 30.8344 13.9778 25.5337C6.84156 17.7169 0.159054 3.81563 0.159054 3.81563C0.159054 3.81563 -0.212195 3.01125 0.17968 2.53687C0.55093 2.10375 1.41718 2.0625 1.74718 2.0625C1.82968 2.0625 1.87093 2.0625 1.87093 2.0625H10.1209C10.1209 2.0625 10.8841 2.20688 11.4409 2.61938C11.9153 2.97 12.1628 3.60938 12.1628 3.60938C12.1628 3.60938 13.5653 6.33187 15.3184 9.405C18.2678 14.4787 19.8559 16.17 20.9903 16.17C21.1759 16.17 21.3616 16.1288 21.5472 16.0256C23.2384 15.0975 22.7434 7.59 22.7434 7.59C22.7434 7.59 22.7641 4.8675 21.8772 3.67125C21.1966 2.7225 19.8972 2.45437 19.3197 2.37187C18.8659 2.31 19.6084 1.2375 20.5984 0.742501C21.8772 0.123751 24.0016 0 26.5591 0H27.7966C30.2097 0.04125 30.2716 0.28875 31.2203 0.515625C34.0666 1.19625 33.0972 3.85687 33.0972 10.23C33.0972 12.2719 32.7259 15.1387 34.1903 16.1081C34.2934 16.17 34.4378 16.2113 34.6234 16.2113C35.5722 16.2113 37.6141 14.9944 40.8728 9.4875C42.6878 6.3525 44.0903 3.23812 44.0903 3.23812C44.0903 3.23812 44.3997 2.68125 44.8741 2.3925C45.3278 2.12437 45.3278 2.12438 45.9259 2.12438H45.9878C46.6478 2.12438 53.2066 2.0625 54.6503 2.0625H54.8153C56.1972 2.0625 57.4553 2.08313 57.6822 2.92875C58.0122 4.2075 56.6716 6.49688 53.1447 11.2406C47.3284 19.0163 46.6684 18.4388 51.4947 22.935C56.1147 27.225 57.0634 29.3081 57.2284 29.5763C59.1466 32.7525 55.1041 33 55.1041 33Z" fill="#0540F2"/>
</svg>
